<svg fill="none" height="21" viewBox="0 0 161 21" width="161" xmlns="http://www.w3.org/2000/svg"><path d="m10.3747 18.264c-1.56932 0-2.99199-.3373-4.26799-1.012-1.26133-.6893-2.25867-1.6353-2.992-2.838-.71867-1.2173-1.078-2.5887-1.078-4.114 0-1.52533.35933-2.88933 1.078-4.092.73333-1.21733 1.73067-2.16333 2.992-2.838 1.276-.68933 2.706-1.034 4.28999-1.034 1.3347 0 2.5373.23467 3.608.704 1.0853.46933 1.9947 1.144 2.728 2.024l-2.288 2.112c-1.0413-1.20267-2.332-1.804-3.872-1.804-.95332 0-1.80399.21267-2.55199.638-.748.41067-1.33467.99-1.76 1.738-.41067.748-.616 1.59867-.616 2.552 0 .9533.20533 1.804.616 2.552.42533.748 1.012 1.3347 1.76 1.76.748.4107 1.59867.616 2.55199.616 1.54 0 2.8307-.6087 3.872-1.826l2.288 2.112c-.7333.8947-1.6427 1.5767-2.728 2.046s-2.2953.704-3.63.704zm18.606-3.564h-7.15l-1.364 3.3h-3.652l6.864-15.4h3.52l6.886 15.4h-3.74zm-1.122-2.706-2.442-5.896-2.442 5.896zm7.8237-9.394h3.564v12.496h7.722v2.904h-11.286zm20.3896 15.664c-1.5694 0-2.992-.3373-4.268-1.012-1.2614-.6893-2.2587-1.6353-2.992-2.838-.7187-1.2173-1.078-2.5887-1.078-4.114 0-1.52533.3593-2.88933 1.078-4.092.7333-1.21733 1.7306-2.16333 2.992-2.838 1.276-.68933 2.706-1.034 4.29-1.034 1.3346 0 2.5373.23467 3.608.704 1.0853.46933 1.9946 1.144 2.728 2.024l-2.288 2.112c-1.0414-1.20267-2.332-1.804-3.872-1.804-.9534 0-1.804.21267-2.552.638-.748.41067-1.3347.99-1.76 1.738-.4107.748-.616 1.59867-.616 2.552 0 .9533.2053 1.804.616 2.552.4253.748 1.012 1.3347 1.76 1.76.748.4107 1.5986.616 2.552.616 1.54 0 2.8306-.6087 3.872-1.826l2.288 2.112c-.7334.8947-1.6427 1.5767-2.728 2.046-1.0854.4693-2.2954.704-3.63.704zm15.4778 0c-2.2 0-3.916-.6087-5.148-1.826-1.2173-1.2173-1.826-2.9553-1.826-5.214v-8.624h3.564v8.492c0 2.7573 1.144 4.136 3.432 4.136 1.1147 0 1.9654-.33 2.552-.99.5867-.6747.88-1.7233.88-3.146v-8.492h3.52v8.624c0 2.2587-.616 3.9967-1.848 5.214-1.2173 1.2173-2.926 1.826-5.126 1.826zm10.4959-15.664h3.564v12.496h7.722v2.904h-11.286zm23.5483 12.1h-7.15l-1.364 3.3h-3.652l6.864-15.4h3.52l6.886 15.4h-3.74zm-1.122-2.706-2.442-5.896-2.442 5.896zm10.24-6.49h-4.928v-2.904h13.42v2.904h-4.928v12.496h-3.564zm17.653 12.76c-1.599 0-3.043-.3447-4.334-1.034-1.276-.6893-2.281-1.6353-3.014-2.838-.719-1.2173-1.078-2.5813-1.078-4.092 0-1.51067.359-2.86733 1.078-4.07.733-1.21733 1.738-2.17067 3.014-2.86 1.291-.68933 2.735-1.034 4.334-1.034s3.036.34467 4.312 1.034 2.281 1.64267 3.014 2.86c.733 1.20267 1.1 2.55933 1.1 4.07 0 1.5107-.367 2.8747-1.1 4.092-.733 1.2027-1.738 2.1487-3.014 2.838s-2.713 1.034-4.312 1.034zm0-3.036c.909 0 1.731-.2053 2.464-.616.733-.4253 1.305-1.012 1.716-1.76.425-.748.638-1.5987.638-2.552 0-.95333-.213-1.804-.638-2.552-.411-.748-.983-1.32733-1.716-1.738-.733-.42533-1.555-.638-2.464-.638s-1.731.21267-2.464.638c-.733.41067-1.313.99-1.738 1.738-.411.748-.616 1.59867-.616 2.552 0 .9533.205 1.804.616 2.552.425.748 1.005 1.3347 1.738 1.76.733.4107 1.555.616 2.464.616zm20.917 2.772-2.97-4.29h-.176-3.102v4.29h-3.564v-15.4h6.666c1.364 0 2.544.22733 3.542.682 1.012.45467 1.789 1.1 2.332 1.936.542.836.814 1.826.814 2.97s-.279 2.134-.836 2.97c-.543.8213-1.32 1.452-2.332 1.892l3.454 4.95zm-.066-9.812c0-.86533-.279-1.52533-.836-1.98-.558-.46933-1.372-.704-2.442-.704h-2.904v5.368h2.904c1.07 0 1.884-.2347 2.442-.704.557-.46933.836-1.12933.836-1.98z" fill="#fff"/><path d="m6.10671 17.252-.95913 1.755.0121.0066.01219.0065zm-2.992-2.838-1.72227 1.0168.00725.0122.00743.0122zm0-8.206-1.71317-1.03203-.00366.00612zm2.992-2.838.94331 1.76358.0073-.00394zm7.89799-.33-.803 1.83176.0092.00395zm2.728 2.024 1.3566 1.46961 1.3969-1.2895-1.217-1.46048zm-2.288 2.112-1.512 1.30916 1.3515 1.56084 1.5171-1.40039zm-6.42399-1.166.96252 1.75316.0131-.00719.01299-.00739zm-1.76 1.738-1.73858-.98861-.00738.01299-.0072.0131zm0 5.104-1.75316.9625.0072.0131.00738.013zm1.76 1.76-.9886 1.7386.01299.0074.01309.0072zm6.42399-1.21 1.3566-1.4696-1.5262-1.4088-1.3502 1.5783zm2.288 2.112 1.5468 1.2679 1.1954-1.4585-1.3856-1.279zm-2.728 2.046-.7938-1.8357zm-3.63-1.296c-1.27256 0-2.36988-.2708-3.33315-.7801l-1.86968 3.5362c1.58873.84 3.33675 1.2439 5.20283 1.2439zm-3.30885-.767c-.96018-.5248-1.69667-1.2273-2.24355-2.1242l-3.41518 2.0824c.91979 1.5085 2.17796 2.6979 3.74046 3.5518zm-2.22887-2.0998c-.52253-.8851-.80027-1.9003-.80027-3.0972h-3.9999993c0 1.8537.4409313 3.5812 1.3557293 5.1308zm-.80027-3.0972c0-1.19719.27776-2.20079.79483-3.06609l-3.43366-2.05182c-.920263 1.54003-1.3611693 3.26443-1.3611693 5.11791zm.79116-3.05998c.54605-.90644 1.27648-1.60063 2.22215-2.10645l-1.88661-3.52714c-1.577.84351-2.84125 2.04132-3.76186 3.56954zm2.22945-2.11038c.95762-.51733 2.05598-.79364 3.33938-.79364v-4c-1.88457 0-3.64622.413024-5.2406 1.27436zm3.33938-.79364c1.0973 0 2.021.19204 2.8051.53574l1.6059-3.66348c-1.3573-.594964-2.8389-.87226-4.411-.87226zm2.8142.53971c.8073.34911 1.4592.8373 1.9854 1.46866l3.0729-2.56074c-.9406-1.12864-2.1073-1.98978-3.4707-2.57934zm2.1653-1.28132-2.288 2.112 2.7131 2.93922 2.288-2.112zm.5805 2.27245c-1.4069-1.62483-3.2421-2.49484-5.384-2.49484v4c.9381 0 1.6842.33266 2.36 1.11316zm-5.384-2.49484c-1.26165 0-2.45965.28477-3.54059.89942l1.97721 3.47716c.41505-.23601.91838-.37658 1.56338-.37658zm-3.51451.88484c-1.07531.59037-1.92939 1.43566-2.53606 2.50255l3.47716 1.97721c.244-.4291.56325-.74248.98394-.97344zm-2.55064 2.52864c-.59089 1.07628-.86284 2.26485-.86284 3.51452h4c0-.657.13872-1.16976.36916-1.58948zm-.86284 3.51452c0 1.2497.27195 2.4382.86284 3.5145l3.50632-1.925c-.23044-.4197-.36916-.9325-.36916-1.5895zm.87742 3.5406c.60328 1.0609 1.44905 1.9067 2.50998 2.51l1.97721-3.4772c-.43507-.2474-.76264-.5749-1.01003-1.01zm2.53606 2.5246c1.07628.5909 2.26485.8628 3.51451.8628v-4c-.65699 0-1.16975-.1387-1.58947-.3692zm3.51451.8628c2.151 0 3.988-.8849 5.3918-2.5259l-3.0396-2.6002c-.6789.7936-1.4231 1.1261-2.3522 1.1261zm2.5155-2.3564 2.288 2.112 2.7131-2.9392-2.288-2.112zm2.0977-.6255c-.5266.6425-1.1756 1.1325-1.975 1.4782l1.5876 3.6714c1.3713-.593 2.5409-1.467 3.481-2.6138zm-1.975 1.4782c-.8044.3478-1.7395.5397-2.8362.5397v4c1.5726 0 3.0576-.2775 4.4238-.8683zm15.7698-1.0243 1.8483-.764-.5109-1.236h-1.3374zm-7.15 0v-2h-1.3374l-.5109 1.236zm-1.364 3.3v2h1.3374l.5109-1.236zm-3.652 0-1.8268-.8142-1.2543 2.8142h3.0811zm6.864-15.4v-2.000001h-1.2982l-.5286 1.185791zm3.52 0 1.8258-.81639-.5293-1.183611h-1.2965zm6.886 15.4v2h3.0851l-1.2593-2.8164zm-3.74 0-1.8483.764.5109 1.236h1.3374zm-2.486-6.006v2h2.9931l-1.1453-2.7653zm-2.442-5.896 1.8478-.76531-1.8478-4.461313-1.8478 4.461313zm-2.442 5.896-1.8478-.7653-1.1453 2.7653h2.9931zm6.006.706h-7.15v4h7.15zm-8.9983 1.236-1.364 3.3 3.6966 1.528 1.364-3.3zm.4843 2.064h-3.652v4h3.652zm-1.8252 2.8142 6.864-15.39999-3.6536-1.62842-6.864 15.40001zm5.0372-14.2142h3.52v-4.000001h-3.52zm1.6942-1.18361 6.886 15.40001 3.6516-1.6328-6.886-15.39999zm8.7118 12.58361h-3.74v4h3.74zm-1.8917 1.236-1.364-3.3-3.6966 1.528 1.364 3.3zm-2.4865-6.0073-2.442-5.89601-3.6956 1.53062 2.442 5.89599zm-6.1376-5.89601-2.442 5.89601 3.6956 1.5306 2.442-5.89599zm-.5942 8.66131h4.884v-4h-4.884zm12.7077-11.394v-2.000001h-2v2.000001zm3.564 0h2v-2.000001h-2zm0 12.496h-2v2h2zm7.722 0h2v-2h-2zm0 2.904v2h2v-2zm-11.286 0h-2v2h2zm0-13.4h3.564v-4.000001h-3.564zm1.564-2v12.496h4v-12.496zm2 14.496h7.722v-4h-7.722zm5.722-2v2.904h4v-2.904zm2 .904h-11.286v4h11.286zm-9.286 2v-15.4h-4v15.4zm14.1216-.748-.9592 1.755.0121.0066.0122.0065zm-2.992-2.838-1.7223 1.0168.0073.0122.0074.0122zm0-8.206-1.7132-1.03203-.0037.00612zm2.992-2.838.9433 1.76358.0073-.00394zm7.898-.33-.803 1.83176.0092.00395zm2.728 2.024 1.3565 1.46961 1.397-1.2895-1.2171-1.46048zm-2.288 2.112-1.512 1.30916 1.3514 1.56084 1.5171-1.40039zm-6.424-1.166.9625 1.75316.0131-.00719.013-.00739zm-1.76 1.738-1.7386-.98861-.0074.01299-.0072.0131zm0 5.104-1.7532.9625.0072.0131.0074.013zm1.76 1.76-.9886 1.7386.013.0074.0131.0072zm6.424-1.21 1.3565-1.4696-1.5262-1.4088-1.3501 1.5783zm2.288 2.112 1.5468 1.2679 1.1954-1.4585-1.3857-1.279zm-2.728 2.046-.7938-1.8357zm-3.63-1.296c-1.2726 0-2.3699-.2708-3.3332-.7801l-1.8697 3.5362c1.5888.84 3.3368 1.2439 5.2029 1.2439zm-3.3089-.767c-.9602-.5248-1.6967-1.2273-2.2435-2.1242l-3.4152 2.0824c.9198 1.5085 2.1779 2.6979 3.7404 3.5518zm-2.2289-2.0998c-.5225-.8851-.8002-1.9003-.8002-3.0972h-4c0 1.8537.4409 3.5812 1.3557 5.1308zm-.8002-3.0972c0-1.19719.2777-2.20079.7948-3.06609l-3.4337-2.05182c-.9202 1.54003-1.3611 3.26443-1.3611 5.11791zm.7911-3.05998c.5461-.90644 1.2765-1.60063 2.2222-2.10645l-1.8866-3.52714c-1.577.84351-2.8413 2.04132-3.7619 3.56954zm2.2295-2.11038c.9576-.51733 2.056-.79364 3.3394-.79364v-4c-1.8846 0-3.6462.413024-5.2406 1.27436zm3.3394-.79364c1.0973 0 2.021.19204 2.805.53574l1.6059-3.66348c-1.3572-.594964-2.8389-.87226-4.4109-.87226zm2.8142.53971c.8073.34911 1.4592.8373 1.9853 1.46866l3.0729-2.56074c-.9405-1.12864-2.1072-1.98978-3.4706-2.57934zm2.1652-1.28132-2.288 2.112 2.7131 2.93922 2.288-2.112zm.5806 2.27245c-1.4069-1.62483-3.2421-2.49484-5.384-2.49484v4c.938 0 1.6842.33266 2.36 1.11316zm-5.384-2.49484c-1.2617 0-2.4597.28477-3.5406.89942l1.9772 3.47716c.415-.23601.9184-.37658 1.5634-.37658zm-3.5145.88484c-1.0754.59037-1.9294 1.43566-2.5361 2.50255l3.4772 1.97721c.244-.4291.5632-.74248.9839-.97344zm-2.5507 2.52864c-.5909 1.07628-.8628 2.26485-.8628 3.51452h4c0-.657.1387-1.16976.3691-1.58948zm-.8628 3.51452c0 1.2497.2719 2.4382.8628 3.5145l3.5063-1.925c-.2304-.4197-.3691-.9325-.3691-1.5895zm.8774 3.5406c.6033 1.0609 1.449 1.9067 2.51 2.51l1.9772-3.4772c-.4351-.2474-.7627-.5749-1.01-1.01zm2.5361 2.5246c1.0762.5909 2.2648.8628 3.5145.8628v-4c-.657 0-1.1698-.1387-1.5895-.3692zm3.5145.8628c2.1509 0 3.988-.8849 5.3918-2.5259l-3.0396-2.6002c-.6789.7936-1.4232 1.1261-2.3522 1.1261zm2.5154-2.3564 2.288 2.112 2.7131-2.9392-2.288-2.112zm2.0978-.6255c-.5266.6425-1.1756 1.1325-1.975 1.4782l1.5876 3.6714c1.3713-.593 2.5409-1.467 3.481-2.6138zm-1.975 1.4782c-.8044.3478-1.7395.5397-2.8362.5397v4c1.5726 0 3.0575-.2775 4.4238-.8683zm7.4936.7137-1.4142 1.4142.0085.0085zm-1.826-13.838v-2.000001h-2v2.000001zm3.564 0h2v-2.000001h-2zm5.984 11.638 1.4949 1.3287.0072-.0081.0071-.0082zm.88-11.638v-2.000001h-2v2.000001zm3.52 0h2v-2.000001h-2zm-1.848 13.838-1.4057-1.4227-.0085.0085zm-5.126-.174c-1.8228 0-2.9788-.4943-3.7422-1.2487l-2.8115 2.8454c1.7006 1.6802 3.9766 2.4033 6.5537 2.4033zm-3.7338-1.2402c-.736-.7361-1.2402-1.8996-1.2402-3.7998h-4c0 2.6172.7132 4.9296 2.4118 6.6282zm-1.2402-3.7998v-8.624h-4v8.624zm-2-6.624h3.564v-4.000001h-3.564zm1.564-2v8.492h4v-8.492zm0 8.492c0 1.6056.3254 3.1819 1.3189 4.3791 1.0528 1.2688 2.5525 1.7569 4.1131 1.7569v-4c-.7273 0-.9436-.2012-1.0348-.3111-.1505-.1814-.3972-.6731-.3972-1.8249zm5.432 6.136c1.5252 0 2.9855-.4673 4.0469-1.6613l-2.9897-2.6574c-.112.126-.353.3187-1.0572.3187zm4.0612-1.6776c1.0439-1.2005 1.3708-2.823 1.3708-4.4584h-4c0 1.21-.2597 1.6848-.3892 1.8336zm1.3708-4.4584v-8.492h-4v8.492zm-2-6.492h3.52v-4.000001h-3.52zm1.52-2v8.624h4v-8.624zm0 8.624c0 1.8937-.5076 3.0542-1.2537 3.7913l2.8115 2.8454c1.7179-1.6976 2.4422-4.013 2.4422-6.6367zm-1.2622 3.7998c-.7455.7455-1.8876 1.2402-3.7118 1.2402v4c2.5759 0 4.8511-.7227 6.5402-2.4118zm6.7841-12.4238v-2.000001h-2v2.000001zm3.564 0h2v-2.000001h-2zm0 12.496h-2v2h2zm7.722 0h2v-2h-2zm0 2.904v2h2v-2zm-11.286 0h-2v2h2zm0-13.4h3.564v-4.000001h-3.564zm1.564-2v12.496h4v-12.496zm2 14.496h7.722v-4h-7.722zm5.722-2v2.904h4v-2.904zm2 .904h-11.286v4h11.286zm-9.286 2v-15.4h-4v15.4zm21.5483-3.3 1.848-.764-.511-1.236h-1.337zm-7.15 0v-2h-1.3375l-.5109 1.236zm-1.364 3.3v2h1.3374l.5109-1.236zm-3.652 0-1.8268-.8142-1.2543 2.8142h3.0811zm6.864-15.4v-2.000001h-1.2983l-.5285 1.185791zm3.52 0 1.826-.81639-.529-1.183611h-1.297zm6.886 15.4v2h3.085l-1.259-2.8164zm-3.74 0-1.848.764.511 1.236h1.337zm-2.486-6.006v2h2.993l-1.145-2.7653zm-2.442-5.896 1.848-.76531-1.848-4.461313-1.848 4.461313zm-2.442 5.896-1.8478-.7653-1.1453 2.7653h2.9931zm6.006.706h-7.15v4h7.15zm-8.9984 1.236-1.364 3.3 3.6967 1.528 1.3637-3.3zm.4844 2.064h-3.652v4h3.652zm-1.8253 2.8142 6.8643-15.39999-3.6538-1.62842-6.864 15.40001zm5.0373-14.2142h3.52v-4.000001h-3.52zm1.694-1.18361 6.886 15.40001 3.652-1.6328-6.886-15.39999zm8.712 12.58361h-3.74v4h3.74zm-1.892 1.236-1.364-3.3-3.696 1.528 1.364 3.3zm-2.486-6.0073-2.442-5.89601-3.696 1.53062 2.442 5.89599zm-6.138-5.89601-2.4418 5.89601 3.6958 1.5306 2.442-5.89599zm-.594 8.66131h4.884v-4h-4.884zm15.124-8.49h2v-2h-2zm-4.928 0h-2v2h2zm0-2.904v-2.000001h-2v2.000001zm13.42 0h2v-2.000001h-2zm0 2.904v2h2v-2zm-4.928 0v-2h-2v2zm0 12.496v2h2v-2zm-3.564 0h-2v2h2zm0-14.496h-4.928v4h4.928zm-2.928 2v-2.904h-4v2.904zm-2-.904h13.42v-4.000001h-13.42zm11.42-2v2.904h4v-2.904zm2 .904h-4.928v4h4.928zm-6.928 2v12.496h4v-12.496zm2 10.496h-3.564v4h3.564zm-1.564 2v-12.496h-4v12.496zm11.319-.77-.951 1.7597.009.0045zm-3.014-2.838-1.722 1.0168.007.0122.007.0122zm0-8.162-1.713-1.03203-.004.00612zm3.014-2.86-.942-1.76417-.009.00453zm11.66 2.86-1.713 1.03204.005.00917zm0 8.162 1.708 1.0412.005-.0092zm-3.014 2.838.951 1.7596zm-1.848-2.618.977 1.745.013-.0074.013-.0075zm1.716-1.76-1.739-.9886-.007.013-.007.0131zm0-5.104-1.753.96252.007.01309.007.01299zm-1.716-1.738-1.003 1.73006.013.00758.013.00737zm-4.928 0 .977 1.74501.013-.00737.013-.00758zm-1.738 1.738-1.739-.98861-.007.01299-.007.0131zm0 5.104-1.753.9625.007.0131.007.013zm1.738 1.76-1.003 1.7301.013.0075.013.0074zm2.464 1.652c-1.301 0-2.417-.2777-3.392-.7982l-1.884 3.5284c1.607.8582 3.38 1.2698 5.276 1.2698zm-3.383-.7936c-.975-.5263-1.714-1.2284-2.257-2.1196l-3.416 2.0824c.924 1.5142 2.194 2.7041 3.771 3.5564zm-2.243-2.0952c-.524-.8881-.8-1.8967-.8-3.0752h-4c0 1.8429.443 3.5622 1.356 5.1088zm-.8-3.0752c0-1.17869.276-2.17576.795-3.04409l-3.434-2.05182c-.918 1.537-1.361 3.25326-1.361 5.09591zm.791-3.03798c.545-.90444 1.284-1.60938 2.252-2.13238l-1.902-3.51928c-1.583.85566-2.854 2.05739-3.776 3.58761zm2.243-2.12787c.975-.52047 2.091-.79815 3.392-.79815v-4c-1.896 0-3.669.411649-5.276 1.26985zm3.392-.79815c1.301 0 2.407.27776 3.361.79364l1.902-3.51928c-1.597-.862785-3.367-1.27436-5.263-1.27436zm3.361.79364c.969.523 1.707 1.22794 2.252 2.13238l3.426-2.06405c-.922-1.53022-2.192-2.73195-3.776-3.58761zm2.257 2.14157c.529.86623.808 1.85779.808 3.02879h4c0-1.85034-.454-3.57211-1.392-5.11122zm.808 3.02879c0 1.1708-.279 2.174-.813 3.06l3.426 2.064c.933-1.5486 1.387-3.2735 1.387-5.124zm-.808 3.0508c-.543.8912-1.282 1.5933-2.257 2.1196l1.902 3.5192c1.577-.8523 2.847-2.0422 3.771-3.5564zm-2.257 2.1196c-.954.5158-2.06.7936-3.361.7936v4c1.896 0 3.666-.4116 5.263-1.2744zm-3.361 1.7576c1.223 0 2.385-.2796 3.441-.871l-1.954-3.49c-.411.2299-.891.361-1.487.361zm3.467-.8859c1.051-.6094 1.881-1.4624 2.466-2.5276l-3.506-1.925c-.237.4308-.55.7512-.966.9924zm2.452-2.5015c.614-1.0809.899-2.2789.899-3.5406h-4c0 .645-.141 1.1483-.377 1.5634zm.899-3.5406c0-1.26166-.285-2.45966-.899-3.5406l-3.478 1.9772c.236.41506.377.91839.377 1.5634zm-.885-3.51452c-.588-1.07105-1.426-1.92387-2.492-2.52049l-1.954 3.49002c.401.22472.707.53056.94.95551zm-2.466-2.50554c-1.06-.61498-2.232-.90794-3.467-.90794v4c.583 0 1.054.13238 1.461.36806zm-3.467-.90794c-1.235 0-2.407.29296-3.467.90794l2.006 3.46012c.407-.23568.878-.36806 1.461-.36806zm-3.441.89299c-1.059.59312-1.899 1.43753-2.5 2.4944l3.478 1.97721c.249-.43912.569-.75338.976-.98159zm-2.514 2.52049c-.591 1.07628-.863 2.26485-.863 3.51452h4c0-.657.139-1.16976.369-1.58948zm-.863 3.51452c0 1.2497.272 2.4382.863 3.5145l3.506-1.925c-.23-.4197-.369-.9325-.369-1.5895zm.877 3.5406c.598 1.051 1.429 1.8956 2.474 2.5015l2.006-3.4602c-.422-.2448-.749-.5735-1.002-1.0185zm2.5 2.5164c1.056.5914 2.218.871 3.441.871v-4c-.596 0-1.076-.1311-1.487-.361zm24.358 1.643-1.645 1.1384.597.8616h1.048zm-2.97-4.29 1.644-1.1384-.597-.8616h-1.047zm-3.278 0v-2h-2v2zm0 4.29v2h2v-2zm-3.564 0h-2v2h2zm0-15.4v-2.000001h-2v2.000001zm10.208.682-.83 1.81984.01.0045zm2.31 7.876-1.665-1.1094-.004.0069zm-2.332 1.892-.798-1.8341-2.241.9744 1.398 2.0042zm3.454 4.95v2h3.834l-2.194-3.1445zm-4.73-11.792-1.289 1.52982.012.01005.012.00986zm-5.346-.704v-2h-2v2zm0 5.368h-2v2h2zm5.346-.704 1.288 1.5298zm2.546 6.6936-2.97-4.29-3.289 2.2768 2.97 4.29zm-4.614-5.1516h-.176v4h.176zm-.176 0h-3.102v4h3.102zm-5.102 2v4.29h4v-4.29zm2 2.29h-3.564v4h3.564zm-1.564 2v-15.4h-4v15.4zm-2-13.4h6.666v-4.000001h-6.666zm6.666 0c1.145 0 2.031.1912 2.712.50181l1.659-3.63963c-1.313-.598711-2.789-.862181-4.371-.862181zm2.722.50634c.702.31553 1.164.72288 1.474 1.2006l3.355-2.17788c-.775-1.19428-1.868-2.0776-3.19-2.6714zm1.474 1.2006c.302.46591.492 1.06496.492 1.88106h4c0-1.47191-.354-2.85286-1.137-4.05894zm.492 1.88106c0 .80558-.192 1.39714-.501 1.8606l3.329 2.2188c.805-1.2085 1.172-2.59698 1.172-4.0794zm-.505 1.8675c-.304.4601-.76.8555-1.461 1.1604l1.595 3.6682c1.323-.5751 2.422-1.441 3.203-2.6236zm-2.304 4.139 3.454 4.95 3.281-2.289-3.454-4.95zm5.095 1.8055h-3.828v4h3.828zm-1.894-7.812c0-1.3312-.454-2.61741-1.572-3.52973l-2.529 3.09946c.027.02194.037.03604.049.06421.016.0383.052.14634.052.36606zm-1.548-3.50982c-1.054-.88753-2.403-1.17418-3.73-1.17418v4c.814 0 1.093.18269 1.153.23382zm-3.73-1.17418h-2.904v4h2.904zm-4.904 2v5.368h4v-5.368zm2 7.368h2.904v-4h-2.904zm2.904 0c1.327 0 2.676-.2866 3.73-1.1742l-2.577-3.05962c-.06.05113-.339.23382-1.153.23382zm3.73-1.1742c1.086-.9148 1.548-2.17893 1.548-3.5098h-4c0 .37047-.096.42629-.125.45018z" fill="#000"/><path d="m10.3747 18.264c-1.56932 0-2.99199-.3373-4.26799-1.012-1.26133-.6893-2.25867-1.6353-2.992-2.838-.71867-1.2173-1.078-2.5887-1.078-4.114 0-1.52533.35933-2.88933 1.078-4.092.73333-1.21733 1.73067-2.16333 2.992-2.838 1.276-.68933 2.706-1.034 4.28999-1.034 1.3347 0 2.5373.23467 3.608.704 1.0853.46933 1.9947 1.144 2.728 2.024l-2.288 2.112c-1.0413-1.20267-2.332-1.804-3.872-1.804-.95332 0-1.80399.21267-2.55199.638-.748.41067-1.33467.99-1.76 1.738-.41067.748-.616 1.59867-.616 2.552 0 .9533.20533 1.804.616 2.552.42533.748 1.012 1.3347 1.76 1.76.748.4107 1.59867.616 2.55199.616 1.54 0 2.8307-.6087 3.872-1.826l2.288 2.112c-.7333.8947-1.6427 1.5767-2.728 2.046s-2.2953.704-3.63.704zm18.606-3.564h-7.15l-1.364 3.3h-3.652l6.864-15.4h3.52l6.886 15.4h-3.74zm-1.122-2.706-2.442-5.896-2.442 5.896zm7.8237-9.394h3.564v12.496h7.722v2.904h-11.286zm20.3896 15.664c-1.5694 0-2.992-.3373-4.268-1.012-1.2614-.6893-2.2587-1.6353-2.992-2.838-.7187-1.2173-1.078-2.5887-1.078-4.114 0-1.52533.3593-2.88933 1.078-4.092.7333-1.21733 1.7306-2.16333 2.992-2.838 1.276-.68933 2.706-1.034 4.29-1.034 1.3346 0 2.5373.23467 3.608.704 1.0853.46933 1.9946 1.144 2.728 2.024l-2.288 2.112c-1.0414-1.20267-2.332-1.804-3.872-1.804-.9534 0-1.804.21267-2.552.638-.748.41067-1.3347.99-1.76 1.738-.4107.748-.616 1.59867-.616 2.552 0 .9533.2053 1.804.616 2.552.4253.748 1.012 1.3347 1.76 1.76.748.4107 1.5986.616 2.552.616 1.54 0 2.8306-.6087 3.872-1.826l2.288 2.112c-.7334.8947-1.6427 1.5767-2.728 2.046-1.0854.4693-2.2954.704-3.63.704zm15.4778 0c-2.2 0-3.916-.6087-5.148-1.826-1.2173-1.2173-1.826-2.9553-1.826-5.214v-8.624h3.564v8.492c0 2.7573 1.144 4.136 3.432 4.136 1.1147 0 1.9654-.33 2.552-.99.5867-.6747.88-1.7233.88-3.146v-8.492h3.52v8.624c0 2.2587-.616 3.9967-1.848 5.214-1.2173 1.2173-2.926 1.826-5.126 1.826zm10.4959-15.664h3.564v12.496h7.722v2.904h-11.286zm23.5483 12.1h-7.15l-1.364 3.3h-3.652l6.864-15.4h3.52l6.886 15.4h-3.74zm-1.122-2.706-2.442-5.896-2.442 5.896zm10.24-6.49h-4.928v-2.904h13.42v2.904h-4.928v12.496h-3.564zm17.653 12.76c-1.599 0-3.043-.3447-4.334-1.034-1.276-.6893-2.281-1.6353-3.014-2.838-.719-1.2173-1.078-2.5813-1.078-4.092 0-1.51067.359-2.86733 1.078-4.07.733-1.21733 1.738-2.17067 3.014-2.86 1.291-.68933 2.735-1.034 4.334-1.034s3.036.34467 4.312 1.034 2.281 1.64267 3.014 2.86c.733 1.20267 1.1 2.55933 1.1 4.07 0 1.5107-.367 2.8747-1.1 4.092-.733 1.2027-1.738 2.1487-3.014 2.838s-2.713 1.034-4.312 1.034zm0-3.036c.909 0 1.731-.2053 2.464-.616.733-.4253 1.305-1.012 1.716-1.76.425-.748.638-1.5987.638-2.552 0-.95333-.213-1.804-.638-2.552-.411-.748-.983-1.32733-1.716-1.738-.733-.42533-1.555-.638-2.464-.638s-1.731.21267-2.464.638c-.733.41067-1.313.99-1.738 1.738-.411.748-.616 1.59867-.616 2.552 0 .9533.205 1.804.616 2.552.425.748 1.005 1.3347 1.738 1.76.733.4107 1.555.616 2.464.616zm20.917 2.772-2.97-4.29h-.176-3.102v4.29h-3.564v-15.4h6.666c1.364 0 2.544.22733 3.542.682 1.012.45467 1.789 1.1 2.332 1.936.542.836.814 1.826.814 2.97s-.279 2.134-.836 2.97c-.543.8213-1.32 1.452-2.332 1.892l3.454 4.95zm-.066-9.812c0-.86533-.279-1.52533-.836-1.98-.558-.46933-1.372-.704-2.442-.704h-2.904v5.368h2.904c1.07 0 1.884-.2347 2.442-.704.557-.46933.836-1.12933.836-1.98z" fill="#fff"/></svg>