<svg fill="none" height="125" viewBox="0 0 126 125" width="126" xmlns="http://www.w3.org/2000/svg"><circle cx="62.5" cy="68.5" fill="#ffda55" r="55" stroke="#000" stroke-width="3"/><circle cx="63" cy="68" fill="#ee5230" r="47.5" stroke="#000" stroke-width="3"/><path d="m49.0445 29.968c0 2.38-.616 4.564-1.848 6.552s-3.024 3.612-5.376 4.872-5.152 2.002-8.4 2.226l-1.806 10.122c-.7 3.892-2.604 5.838-5.712 5.838-1.708 0-3.29-.504-4.746-1.512-1.428-1.008-2.576-2.548-3.444-4.62s-1.302-4.62-1.302-7.644c0-5.684.91-10.5 2.73-14.448 1.848-3.976 4.312-6.944 7.392-8.904 3.108-1.988 6.524-2.982 10.248-2.982 2.632 0 4.858.462 6.678 1.386 1.848.924 3.234 2.184 4.158 3.78.952 1.568 1.428 3.346 1.428 5.334zm-14.868 9.324c5.74-.728 8.61-3.71 8.61-8.946 0-1.848-.616-3.346-1.848-4.494-1.204-1.176-3.08-1.764-5.628-1.764-2.884 0-5.404.91-7.56 2.73-2.128 1.82-3.78 4.354-4.956 7.602-1.148 3.22-1.722 6.902-1.722 11.046 0 1.736.168 3.276.504 4.62.364 1.344.812 2.394 1.344 3.15.56.728 1.092 1.092 1.596 1.092.7 0 1.232-.966 1.596-2.898l1.386-7.938c-1.092-.168-1.568-.238-1.428-.21-.84-.14-1.386-.392-1.638-.756-.252-.392-.378-.882-.378-1.47 0-.616.168-1.106.504-1.47.364-.364.854-.546 1.47-.546.28 0 .49.014.63.042.672.112 1.19.182 1.554.21.364-2.184.882-5.11 1.554-8.778.168-.952.546-1.624 1.134-2.016.616-.42 1.33-.63 2.142-.63.924 0 1.582.182 1.974.546.42.336.63.882.63 1.638 0 .448-.028.812-.084 1.092zm19.1149-6.636c-1.176 0-2.058-.266-2.646-.798-.588-.56-.882-1.33-.882-2.31s.378-1.792 1.134-2.436c.784-.672 1.75-1.008 2.898-1.008 1.036 0 1.876.252 2.52.756s.966 1.218.966 2.142c0 1.12-.364 2.016-1.092 2.688-.728.644-1.694.966-2.898.966zm-.336 22.554c-1.82 0-3.15-.644-3.99-1.932-.812-1.288-1.218-2.996-1.218-5.124 0-1.26.154-2.87.462-4.83.336-1.988.756-3.836 1.26-5.544.252-.896.588-1.512 1.008-1.848s1.092-.504 2.016-.504c1.428 0 2.142.476 2.142 1.428 0 .7-.266 2.324-.798 4.872-.672 3.08-1.008 5.166-1.008 6.258 0 .84.112 1.484.336 1.932s.602.672 1.134.672c.504 0 1.134-.35 1.89-1.05s1.764-1.806 3.024-3.318c.336-.392.714-.588 1.134-.588.364 0 .644.168.84.504.224.336.336.798.336 1.386 0 1.12-.266 1.988-.798 2.604-2.772 3.388-5.362 5.082-7.77 5.082zm25.3077-9.576c.364 0 .644.168.84.504.224.336.336.798.336 1.386 0 1.036-.266 1.904-.798 2.604-1.316 1.708-2.954 3.052-4.914 4.032-1.932.98-4.116 1.47-6.552 1.47-1.904 0-3.556-.28-4.956-.84-1.4-.588-2.478-1.372-3.234-2.352-.728-1.008-1.092-2.128-1.092-3.36 0-1.848.742-3.486 2.226-4.914s3.612-2.8 6.384-4.116l-6.888.168c-.616.028-1.092-.182-1.428-.63-.308-.476-.462-1.036-.462-1.68 0-.672.154-1.26.462-1.764.336-.532.784-.798 1.344-.798 1.288 0 3.01.098 5.166.294.448.028 1.26.084 2.436.168 1.204.084 2.212.126 3.024.126.28 0 .812-.112 1.596-.336.14-.028.406-.098.798-.21.42-.112.77-.168 1.05-.168.448 0 .812.196 1.092.588.308.392.462.994.462 1.806 0 .896-.21 1.596-.63 2.1s-1.078.952-1.974 1.344c-2.548 1.092-4.662 2.268-6.342 3.528-1.68 1.232-2.52 2.464-2.52 3.696 0 .784.364 1.428 1.092 1.932s1.806.756 3.234.756c1.568 0 3.15-.392 4.746-1.176 1.624-.784 3.08-1.974 4.368-3.57.336-.392.714-.588 1.134-.588zm18.7031 0c.364 0 .644.168.84.504.224.336.336.798.336 1.386 0 1.036-.266 1.904-.798 2.604-1.316 1.708-2.954 3.052-4.914 4.032-1.932.98-4.116 1.47-6.552 1.47-1.904 0-3.556-.28-4.956-.84-1.4-.588-2.478-1.372-3.234-2.352-.728-1.008-1.092-2.128-1.092-3.36 0-1.848.742-3.486 2.226-4.914s3.612-2.8 6.384-4.116l-6.888.168c-.616.028-1.092-.182-1.428-.63-.308-.476-.462-1.036-.462-1.68 0-.672.154-1.26.462-1.764.336-.532.784-.798 1.344-.798 1.288 0 3.01.098 5.166.294.448.028 1.26.084 2.436.168 1.204.084 2.212.126 3.024.126.28 0 .812-.112 1.596-.336.14-.028.406-.098.798-.21.42-.112.77-.168 1.05-.168.448 0 .812.196 1.092.588.308.392.462.994.462 1.806 0 .896-.21 1.596-.63 2.1s-1.078.952-1.974 1.344c-2.548 1.092-4.662 2.268-6.342 3.528-1.68 1.232-2.52 2.464-2.52 3.696 0 .784.364 1.428 1.092 1.932s1.806.756 3.234.756c1.568 0 3.15-.392 4.746-1.176 1.624-.784 3.08-1.974 4.368-3.57.336-.392.714-.588 1.134-.588zm2.165 9.576c-1.596 0-2.898-.63-3.906-1.89-.98-1.26-1.47-2.912-1.47-4.956 0-2.24.518-4.354 1.554-6.342 1.036-2.016 2.408-3.626 4.116-4.83 1.7358-1.232 3.5698-1.848 5.5018-1.848.616 0 1.022.126 1.218.378.224.224.406.644.546 1.26.532-.112 1.12-.168 1.764-.168.672 0 1.19.168 1.554.504s.546.812.546 1.428c0 .644-.14 1.764-.42 3.36-.308 1.708-.546 3.346-.714 4.914-.168 1.54-.252 3.276-.252 5.208 0 1.064-.224 1.834-.672 2.31-.42.448-1.12.672-2.1.672-.952 0-1.666-.224-2.142-.672-.448-.476-.672-1.232-.672-2.268l.042-.672c-.868 2.408-2.366 3.612-4.4938 3.612zm1.6378-4.242c.784 0 1.498-.546 2.142-1.638s1.218-3.038 1.722-5.838l.798-4.242c-1.148.028-2.212.476-3.192 1.344-.98.84-1.764 1.96-2.3518 3.36-.588 1.4-.882 2.884-.882 4.452 0 .84.154 1.484.462 1.932.336.42.7698.63 1.3018.63zm-81.9062 51.242c-1.624 0-3.458-.14-5.502-.42-1.12-.14-1.89-.434-2.31-.882s-.602-1.176-.546-2.184c.196-2.772.658-6.188 1.386-10.248.728-4.088 1.61-8.022 2.646-11.802.196-.7.588-1.19 1.176-1.47s1.358-.42 2.31-.42c1.708 0 2.562.476 2.562 1.428 0 .392-.084.84-.252 1.344-.728 2.24-1.456 5.25-2.184 9.03-.728 3.752-1.246 7.336-1.554 10.752.84.084 1.792.126 2.856.126 4.9 0 8.554-1.484 10.962-4.452 2.436-2.968 3.654-6.93 3.654-11.886 0-3.332-.952-5.908-2.856-7.728s-4.592-2.73-8.064-2.73c-2.24 0-4.466.35-6.678 1.05-2.184.7-4.158 1.624-5.922 2.772-.364.252-.75604.378-1.17604.378-.476 0-.854-.196-1.134-.588-.28-.42-.42-.924-.42-1.512 0-.672.112-1.218.336-1.638.224-.448.602-.854 1.134-1.218 1.93204-1.316 4.20004-2.31 6.80404-2.982 2.604-.7 5.11-1.05 7.518-1.05 3.416 0 6.37.602 8.862 1.806 2.492 1.176 4.41 2.912 5.754 5.208s2.016 5.068 2.016 8.316c0 4.228-.84 7.924-2.52 11.088-1.68 3.136-4.13 5.572-7.35 7.308s-7.056 2.604-11.508 2.604zm45.6093-13.104c.364 0 .644.182.84.546s.294.826.294 1.386c0 1.344-.406 2.142-1.218 2.394-1.68.588-3.528.924-5.544 1.008-.532 2.352-1.582 4.242-3.15 5.67-1.568 1.4-3.346 2.1-5.334 2.1-1.68 0-3.122-.406-4.326-1.218-1.176-.812-2.072-1.89-2.688-3.234s-.924-2.8-.924-4.368c0-2.128.406-4.018 1.218-5.67.812-1.68 1.932-2.982 3.36-3.906 1.428-.952 3.01-1.428 4.746-1.428 2.128 0 3.836.742 5.124 2.226 1.316 1.456 2.086 3.262 2.31 5.418 1.316-.084 2.884-.364 4.704-.84.224-.056.42-.084.588-.084zm-13.776 8.652c.896 0 1.666-.364 2.31-1.092.672-.728 1.12-1.778 1.344-3.15-.868-.588-1.54-1.358-2.016-2.31-.448-.952-.672-1.96-.672-3.024 0-.448.042-.896.126-1.344h-.21c-1.12 0-2.058.546-2.814 1.638-.728 1.064-1.092 2.576-1.092 4.536 0 1.54.294 2.716.882 3.528.616.812 1.33 1.218 2.142 1.218zm15.5893 4.452c-1.26 0-2.296-.574-3.108-1.722-.784-1.176-1.176-2.632-1.176-4.368 0-2.1.14-4.018.42-5.754.28-1.764.742-3.626 1.386-5.586.28-.84.672-1.442 1.176-1.806s1.302-.546 2.394-.546c.616 0 1.036.098 1.26.294.252.196.378.49.378.882 0 .224-.154.98-.462 2.268-.28 1.036-.504 1.974-.672 2.814-.56 2.94-.84 4.9-.84 5.88 0 .588.07 1.008.21 1.26.14.224.364.336.672.336.42 0 .938-.42 1.554-1.26.644-.84 1.316-2.114 2.016-3.822.728-1.708 1.428-3.808 2.1-6.3.224-.84.56-1.442 1.008-1.806.476-.364 1.176-.546 2.1-.546.644 0 1.092.084 1.344.252.252.14.378.42.378.84 0 .7-.35 2.618-1.05 5.754-.784 3.584-1.176 5.796-1.176 6.636 0 .532.112.952.336 1.26.224.28.518.42.882.42.56 0 1.218-.336 1.974-1.008.784-.7 1.82-1.82 3.108-3.36.336-.392.714-.588 1.134-.588.364 0 .644.168.84.504.224.336.336.798.336 1.386 0 1.12-.266 1.988-.798 2.604-1.204 1.484-2.506 2.702-3.906 3.654-1.372.952-2.94 1.428-4.704 1.428-1.344 0-2.338-.518-2.982-1.554-.616-1.036-.924-2.492-.924-4.368-.476 1.904-1.19 3.374-2.142 4.41-.952 1.008-1.974 1.512-3.066 1.512zm36.6206-9.492c.364 0 .644.182.84.546.224.336.336.77.336 1.302 0 .644-.098 1.148-.294 1.512s-.504.686-.924.966c-2.408 1.624-4.1723 2.828-5.2923 3.612l-2.688 1.806c-1.064 5.796-2.464 10.346-4.2 13.65-1.708 3.332-3.892 4.998-6.552 4.998-1.428 0-2.59-.448-3.486-1.344-.896-.868-1.344-2.016-1.344-3.444 0-1.988.784-4.13 2.352-6.426 1.568-2.268 4.508-5.068 8.82-8.4l.252-1.638c-.476.756-1.106 1.344-1.89 1.764-.756.392-1.512.588-2.268.588-1.736 0-3.122-.63-4.158-1.89s-1.554-2.912-1.554-4.956c0-2.24.518-4.354 1.554-6.342 1.036-2.016 2.408-3.626 4.116-4.83 1.736-1.232 3.57-1.848 5.502-1.848.616 0 1.022.126 1.218.378.224.224.406.644.546 1.26.532-.112 1.148-.168 1.848-.168s1.19.112 1.47.336c.308.196.462.602.462 1.218 0 .336-.014.602-.042.798-.112.868-.462 3.066-1.05 6.594-.112.672-.238 1.414-.378 2.226-.112.784-.238 1.624-.378 2.52 2.156-1.68 4.228-3.164 6.2163-4.452.364-.224.686-.336.966-.336zm-14.8263 5.25c.644 0 1.26-.392 1.848-1.176s1.008-1.904 1.26-3.36l1.344-7.182c-1.148.028-2.212.476-3.192 1.344-.98.84-1.764 1.96-2.352 3.36s-.882 2.884-.882 4.452c0 .868.168 1.512.504 1.932.364.42.854.63 1.47.63zm-3.486 19.068c.7 0 1.484-.84 2.352-2.52.896-1.68 1.75-4.354 2.562-8.022-2.156 1.848-3.71 3.514-4.662 4.998s-1.428 2.786-1.428 3.906c0 .476.084.868.252 1.176.196.308.504.462.924.462zm31.7733-34.608c.896 0 1.568.238 2.016.714.476.448.714 1.12.714 2.016 0 .728-.154 2.1-.462 4.116-.28 1.708-.504 3.332-.672 4.872-.168 1.512-.252 3.206-.252 5.082 0 1.064-.224 1.834-.672 2.31-.42.448-1.12.672-2.1.672-.924 0-1.596-.238-2.016-.714s-.63-1.19-.63-2.142c0-1.12.196-2.968.588-5.544.336-2.24.504-3.668.504-4.284 0-.448-.154-.672-.462-.672-.364 0-.882.476-1.554 1.428-.672.924-1.344 2.156-2.016 3.696s-1.218 3.164-1.638 4.872c-.308 1.316-.672 2.212-1.092 2.688-.392.448-1.022.672-1.89.672s-1.512-.308-1.932-.924c-.392-.644-.658-1.624-.798-2.94s-.21-3.248-.21-5.796c0-4.312.434-8.806 1.302-13.482.896-4.676 2.198-8.596 3.906-11.76 1.736-3.192 3.808-4.788 6.216-4.788 1.288 0 2.324.56 3.108 1.68.812 1.092 1.218 2.52 1.218 4.284 0 2.828-.826 5.768-2.478 8.82-1.652 3.024-4.34 6.566-8.064 10.626-.084 1.456-.126 2.954-.126 4.494.924-2.38 1.946-4.312 3.066-5.796 1.148-1.512 2.268-2.59 3.36-3.234 1.12-.644 2.142-.966 3.066-.966zm-4.032-15.75c-.504 0-1.064.728-1.68 2.184-.616 1.428-1.218 3.374-1.806 5.838-.56 2.436-1.022 5.096-1.386 7.98 1.736-2.044 3.164-4.27 4.284-6.678 1.148-2.408 1.722-4.592 1.722-6.552 0-.896-.098-1.582-.294-2.058s-.476-.714-.84-.714z" fill="#000"/><path d="m47.1965 36.52 2.55 1.5803zm-5.376 4.872 1.4167 2.6444zm-8.4 2.226-.2064-2.9929-2.3357.1611-.4112 2.3049zm-1.806 10.122 2.9526.531.0008-.0041zm-10.458 4.326-1.73 2.4509.0111.0079.0113.0078zm-3.444-4.62 2.767-1.1592zm1.428-22.092-2.7205-1.2645-.0039.0085zm7.392-8.904 1.6106 2.531.0059-.0038zm16.926-1.596-1.3581 2.675.0082.0042.0083.0041zm4.158 3.78-2.5963 1.5031.0157.0271.0163.0267zm-13.44 14.658-2.9575-.5031-.6784 3.9883 4.0134-.509zm6.762-13.44-2.0962 2.1461.0252.0247.0258.024zm-13.188.966-1.9351-2.2924-.0074.0062-.0074.0063zm-4.956 7.602-2.8208-1.0213-.0025.0069-.0025.0069zm-1.218 15.666-2.9104.7276.0071.0284.0076.0282zm1.344 3.15-2.4534 1.7265.0367.0521.0388.0505zm3.192-1.806 2.9481.5554.0038-.0197.0034-.0197zm1.386-7.938 2.9553.516.5265-3.0156-3.0256-.4655zm-1.428-.21-.4932 2.9592 1.0816-5.9009zm-1.638-.756-2.5235 1.6223.0277.0431.0292.0422zm.126-2.94-2.1213-2.1213-.0424.0424-.0407.0441zm2.1-.504-.5883 2.9417.0474.0095.0477.008zm1.554.21-.2301 2.9912 2.7379.2106.4514-2.7086zm1.554-8.778 2.9509.5406.0018-.0096.0017-.0096zm1.134-2.016 1.6641 2.4962.013-.0087.0129-.0088zm4.116-.084-2.0413 2.1984.0809.0752.0863.069zm.546 2.73-2.9417-.5883-.0085.0425-.0073.0427zm10.482-1.176c0 1.832-.4656 3.4671-1.398 4.9717l5.1 3.1606c1.5316-2.4714 2.298-5.2043 2.298-8.1323zm-1.398 4.9717c-.9171 1.4798-2.2888 2.7612-4.2426 3.8079l2.8333 5.2888c2.7502-1.4733 4.9624-3.4399 6.5093-5.9361zm-4.2426 3.8079c-1.9049 1.0204-4.2741 1.6764-7.1898 1.8775l.4128 5.9858c3.5804-.2469 6.8111-1.0749 9.6103-2.5745zm-9.9367 4.3435-1.806 10.122 5.9067 1.0538 1.806-10.122zm-1.8053 10.1179c-.2894 1.6092-.7635 2.4218-1.1447 2.8114-.3061.3129-.7431.5576-1.6147.5576v6c2.2364 0 4.3054-.7283 5.9034-2.3614 1.5227-1.5564 2.3507-3.6628 2.7612-5.9456zm-2.7594 3.369c-1.0743 0-2.0644-.3043-3.0384-.9786l-3.4152 4.9332c1.9381 1.3417 4.112 2.0454 6.4536 2.0454zm-3.0159-.9629c-.8538-.6027-1.6954-1.6295-2.4071-3.3283l-5.534 2.3184c1.0244 2.4452 2.4787 4.4984 4.481 5.9117zm-2.4071-3.3283c-.6709-1.6015-1.069-3.729-1.069-6.4848h-6c0 3.2922.4699 6.2607 1.535 8.8032zm-1.069-6.4848c0-5.378.8628-9.7393 2.4545-13.1921l-5.4489-2.5119c-2.0483 4.4433-3.0056 9.714-3.0056 15.704zm2.4505-13.1835c1.6556-3.562 3.775-6.0421 6.2821-7.6375l-3.2212-5.062c-3.6529 2.3246-6.4615 5.7805-8.5019 10.1705zm6.288-7.6413c2.6206-1.6762 5.4747-2.5092 8.6315-2.5092v-6c-4.2912 0-8.2691 1.155-11.8645 3.4548zm8.6315-2.5092c2.2923 0 4.0247.4034 5.3199 1.061l2.7162-5.35c-2.3447-1.1904-5.0644-1.711-8.0361-1.711zm5.3364 1.0693c1.3887.6944 2.3078 1.5711 2.9033 2.5998l5.1926-3.0062c-1.2524-2.1633-3.1054-3.8066-5.4126-4.9602zm2.9353 2.6536c.6432 1.0596.9923 2.2905.9923 3.7771h6c0-2.4894-.6029-4.8145-1.8636-6.8909zm-10.4982 16.0773c3.2831-.4164 6.1739-1.53 8.2415-3.6784 2.1057-2.1878 2.991-5.0651 2.991-8.2438h-6c0 2.0573-.5496 3.289-1.314 4.0832-.8023.8336-2.2166 1.575-4.6734 1.8866zm11.2325-11.9222c0-2.5902-.8989-4.9147-2.8028-6.6888l-4.0904 4.3896c.5601.5219.8932 1.1934.8932 2.2992zm-2.7518-6.6401c-1.9947-1.9483-4.7878-2.6179-7.7242-2.6179v6c2.1596 0 3.1185.5064 3.5318.9101zm-7.7242-2.6179c-3.5752 0-6.7849 1.1497-9.4951 3.4376l3.8703 4.5848c1.6017-1.3521 3.432-2.0224 5.6248-2.0224zm-9.5099 3.4501c-2.6044 2.2275-4.5152 5.2377-5.8269 8.8606l5.6416 2.0426c1.0403-2.8731 2.4335-4.9309 4.0851-6.3434zm-5.8319 8.8744c-1.2848 3.6038-1.8962 7.6367-1.8962 12.0535h6c0-3.8713.5366-7.2023 1.5478-10.0385zm-1.8962 12.0535c0 1.9224.1853 3.7146.5936 5.3476l5.8208-1.4552c-.2637-1.055-.4144-2.3428-.4144-3.8924zm.6083 5.4042c.4139 1.528.9784 2.9442 1.7863 4.0923l4.9068-3.453c-.256-.3639-.5875-1.0477-.9017-2.2077zm1.8618 4.1949c.6859.8916 1.9971 2.2629 3.9739 2.2629v-6c.5014 0 .8229.1866.9171.2511.0794.0543.027.0387-.1352-.1722zm3.9739 2.2629c1.984 0 3.0844-1.4284 3.5519-2.2773.4948-.8984.7898-1.9909.9922-3.0653l-5.8962-1.1108c-.0758.402-.1522.7097-.2225.9371-.0347.1122-.0653.1962-.0896.2562-.012.0296-.0218.0515-.0289.0666-.0071.0152-.0109.022-.0107.0218.0001-.0002.005-.0092.0156-.0254s.0281-.0415.0534-.0734c.0493-.0622.1386-.1627.2772-.2714.3082-.2417.7822-.4581 1.3576-.4581zm4.5513-5.382 1.386-7.938-5.9106-1.032-1.386 7.938zm-1.1131-11.4191c-.5464-.0841-.947-.1449-1.1957-.1815-.115-.0169-.2267-.033-.3059-.0429-.0193-.0024-.0608-.0075-.1092-.0121-.0206-.002-.0752-.0072-.1441-.0106-.0322-.0016-.1024-.0047-.1912-.0035-.0113.0001-.3199-.003-.6893.0894-.0425.0106-.8743.1805-1.5364.9419-.442.5082-.7971 1.2758-.7277 2.1944.0615.8156.432 1.3774.6489 1.6485.3929.491.8418.7246.909.7612.1513.0823.2774.1337.3374.1573.1258.0494.2275.0793.2629.0895.048.0139.0871.024.1105.0298.0782.0196.1444.0327.1583.0354l1.1767-5.8834c.0052.001.0167.0033.0323.0067.0124.0027.0452.0098.0879.0205.0214.0053.0589.0149.1054.0284.0341.0099.1347.0394.2598.0885.0596.0234.1853.0747.3364.1569.067.0365.5158.2699.9086.7609.2168.271.5873.8327.6488 1.6483.0694.9185-.2857 1.6861-.7277 2.1943-.662.7613-1.4937.9312-1.536.9417-.3689.0923-.6767.0891-.687.0892-.0878.0012-.1566-.0019-.1872-.0034-.0656-.0033-.1158-.0081-.1306-.0095-.0215-.0021-.0376-.0039-.0449-.0047-.0083-.001-.0139-.0017-.0158-.0019-.0033-.0004.0083.0011.0442.0061.0328.0047.0766.011.1329.0193.2273.0334.6107.0916 1.1563.1755zm-1.391-.2041c-.2561-.0427-.323-.0806-.2755-.0587.0459.0212.3414.1651.6109.5543l-4.9332 3.4152c.9895 1.4292 2.6279 1.8437 3.6114 2.0076zm.3924.5809c.0614.0956.0884.175.0984.2137.0089.0347 0 .0203 0-.0614h-6c0 1.0134.2193 2.1041.8545 3.0923zm.0984.1523c0-.0379.0053.0225-.0361.1435-.0449.1307-.128.2832-.2555.4213l-4.4088-4.0696c-.9643 1.0447-1.2996 2.3266-1.2996 3.5048zm-.3747.6513c-.1278.1279-.2832.2246-.4362.2815-.1431.0531-.2288.0512-.2151.0512v-6c-1.244 0-2.5563.3897-3.5913 1.4247zm-.6513.3327c.0454 0 .0822.0006.1112.0014.0293.0008.0477.0019.0568.0025.0095.0006.0041.0005-.0135-.0016-.0092-.0011-.0232-.003-.0414-.0058-.0181-.0028-.0422-.0069-.0714-.0128l1.1767-5.8834c-.4398-.088-.8909-.1003-1.2184-.1003zm.1368.0012c.6985.1164 1.3197.2037 1.8171.242l.4602-5.9824c-.2306-.0177-.6453-.0704-1.2909-.178zm5.0064-2.256c.3602-2.1611.8749-5.0693 1.5457-8.7306l-5.9018-1.0812c-.6732 3.6747-1.1945 6.6185-1.5623 8.8254zm1.5492-8.7498c.0394-.2237.0828-.2917.0698-.2686-.0078.0139-.0296.049-.0707.0943-.0417.046-.0943.0923-.1554.1331l-3.3282-4.9924c-1.491.9941-2.1679 2.5381-2.4242 3.9908zm-.1304-.0587c.0733-.05.1867-.1087.452-.1087v-6c-1.3587 0-2.6733.3613-3.832 1.1513zm.452-.1087c.1341 0 .2327.0067.3003.0145.0681.0078.0939.0155.0865.0134-.0099-.0027-.2139-.0605-.4541-.2835l4.0827-4.3968c-1.2313-1.1433-2.8412-1.3476-4.0154-1.3476zm.0999-.1114c-.2414-.1931-.3847-.4255-.4534-.6042-.0596-.1548-.0425-.2126-.0425-.1004h6c0-1.2787-.3679-2.8702-1.7559-3.9806zm-.4959-.7046c0 .1637-.0052.2883-.0121.3789-.0072.093-.0147.1303-.0136.1248l5.8835 1.1766c.1101-.5505.1422-1.1326.1422-1.6803zm-.0415.5889-1.386 8.148 5.915 1.0062 1.386-8.148zm18.0404 1.2171-2.0689 2.1724.0278.0265.0284.0257zm.252-4.746 1.9454 2.2837.007-.0059zm5.292 4.578 1.9878 2.247.0237-.0211.0234-.0215zm-7.224 21.588-2.5377 1.5999.0123.0195.0126.0194zm-.756-9.954-2.958-.5-.0029.0172-.0027.0171zm1.26-5.544 2.8774.8491.0054-.0184.0052-.0185zm4.368 3.948 2.9311.6395.0029-.0132.0027-.0131zm2.352 7.812-2.0382-2.2013zm3.024-3.318-2.2777-1.9524-.0136.0158-.0133.016zm1.974-.084-2.5913 1.5116.0453.0777.0499.0748zm-.462 3.99-2.2704-1.9609-.0261.0303-.0253.0309zm-7.434-20.472c-.3714 0-.5823-.0431-.6772-.0717-.0842-.0254-.0408-.0276.044.0491l-4.0255 4.4492c1.3541 1.2251 3.0904 1.5734 4.6587 1.5734zm-.577.0296c.0127.012.0294.0309.0454.055.0158.024.024.0426.0268.0498.0056.0146-.0232-.0506-.0232-.2424h-6c0 1.6181.5099 3.2413 1.8131 4.4824zm.049-.1376c0-.0514.0049-.0776.0063-.0843.0013-.0059.0009-.0019-.003.0064-.0039.0082-.0055.0087.0014-.0002.0075-.0096.0291-.0353.0747-.0742l-3.8908-4.5674c-1.4148 1.2052-2.1886 2.8472-2.1886 4.7197zm.0864-.1582c.1786-.1531.4281-.2858.9456-.2858v-6c-1.7784 0-3.4609.5393-4.8503 1.7302zm.9456-.2858c.2774 0 .4499.034.545.0625.0882.0264.1191.0505.1261.056l3.6979-4.725c-1.299-1.0166-2.8444-1.3935-4.369-1.3935zm.6711.1185c-.0156-.0122-.0453-.0385-.0789-.0809-.0341-.0429-.0621-.0897-.0824-.1348-.0424-.094-.0238-.1171-.0238-.0048h6c0-1.7104-.6456-3.3529-2.117-4.5045zm-.1851-.2205c0 .2334-.0372.3455-.0524.3829-.0117.029-.0265.0565-.0744.1007l4.0697 4.4088c1.4266-1.3169 2.0571-3.0557 2.0571-4.8924zm-.0797.441c-.0571.0505-.2567.213-.9103.213v6c1.7545 0 3.4869-.4815 4.8858-1.719zm-1.2463 22.767c-1.0218 0-1.2992-.298-1.4771-.5708l-5.0257 3.2776c1.5021 2.3032 3.8847 3.2932 6.5028 3.2932zm-1.4522-.5319c-.4126-.6544-.7558-1.7466-.7558-3.5241h-6c0 2.4785.4688 4.8023 1.6803 6.7239zm-.7558-3.5241c0-1.0419.1298-2.4816.4257-4.3643l-5.9273-.9314c-.3201 2.0373-.4984 3.8176-.4984 5.2957zm.4201-4.33c.3186-1.8853.7132-3.6154 1.1793-5.1949l-5.7547-1.6982c-.5419 1.8365-.9873 3.8024-1.3407 5.8931zm1.1899-5.2318c.0835-.2968.1551-.4517.1867-.5096.0327-.06-.0128.0482-.1926.192l-3.7481-4.6852c-1.1531.9225-1.7106 2.2715-2.0219 3.3784zm-.0059-.3176c-.2091.1673-.3608.1982-.3275.1898.0128-.0032.0563-.0128.1377-.0214.081-.0085.1903-.015.3317-.015v-6c-1.1625 0-2.673.1877-3.89 1.1614zm.1419.1534c.0962 0 .1678.0041.2176.0088.0502.0048.0714.0096.0688.009s-.0372-.0083-.0953-.0316c-.0586-.0234-.1459-.0646-.2487-.1331-.2222-.1481-.4559-.3849-.6175-.7082-.1555-.3109-.1829-.5781-.1829-.7169h6c0-1.3499-.5777-2.7047-1.8714-3.5672-1.0789-.7192-2.318-.8608-3.2706-.8608zm-.858-1.572c0-.0028 0 .025-.0048.0921-.0046.0648-.0127.1521-.0256.265-.026.2275-.0681.5252-.1296.901-.1232.7519-.3131 1.748-.5746 3.0007l5.8733 1.2264c.5112-2.4486.8613-4.4091.8613-5.4852zm-.729 4.2325c-.6621 3.0348-1.077 5.4312-1.077 6.8975h6c0-.7177.2572-2.4933.9391-5.6185zm-1.077 6.8975c0 1.0298.1248 2.2177.6528 3.2736l5.3665-2.6832c.0514.1027.0407.1254.0204.0086-.0196-.1123-.0397-.3054-.0397-.599zm.6528 3.2736c.3326.6653.854 1.298 1.6053 1.7433.7408.4389 1.5213.5871 2.2119.5871v-6c.1587 0 .4842.0362.8469.2511.3734.2213.5938.518.7024.7353zm3.8172 2.3304c1.7344 0 3.1094-1.0905 3.9283-1.8487l-4.0765-4.4026c-.1294.1199-.2349.2074-.3167.2694-.0828.0627-.1296.0903-.1415.0969-.013.0072.0295-.0182.1233-.0472.0954-.0294.2615-.0678.4831-.0678zm3.9283-1.8487c.9009-.8342 2.0077-2.0595 3.2904-3.5987l-4.6093-3.8412c-1.2373 1.4848-2.1465 2.4715-2.7576 3.0373zm3.2635-3.5669c-.0307.0358-.1443.1573-.3613.2699-.2316.12-.505.1897-.7825.1897v-6c-1.4931 0-2.6481.7448-3.4117 1.6356zm-1.1438.4596c-.2976 0-.6822-.0746-1.0604-.3015-.3689-.2213-.5831-.4981-.6909-.6829l5.1827-3.0232c-.6886-1.1805-1.9139-1.9924-3.4314-1.9924zm-1.6561-.8319c-.1139-.1708-.155-.3078-.1674-.3588-.0115-.0473-.0005-.0289-.0005.0807h6c0-.9239-.1692-2.0442-.8398-3.0501zm-.1679-.2781c0 .6707-.158.7469-.0684.6431l4.5409 3.9218c1.1536-1.3358 1.5275-2.9956 1.5275-4.5649zm-.1198.7043c-2.6394 3.2258-4.456 3.9817-5.4482 3.9817v6c3.8239 0 7.1872-2.6321 10.0919-6.1823zm20.6995-2.0903-2.5914 1.5116.0453.0777.0499.0748zm-.462 3.99 2.3764 1.831.006-.0078.0061-.008zm-4.914 4.032-1.3417-2.6833-.0077.0039-.0078.0039zm-11.508.63-1.1617 2.7659.0236.01.0239.0095zm-3.234-2.352-2.4321 1.7565.0278.0384.0289.0375zm1.134-8.274-2.0802-2.1617zm6.384-4.116 1.2866 2.7101-1.3598-5.7092zm-6.888.168-.0732-2.9991-.0315.0008-.0316.0014zm-1.428-.63-2.5187 1.6298.0564.0871.0623.0831zm0-3.444-2.5365-1.602-.0118.0187-.0116.0189zm6.51-.504-.2716 2.9877.0421.0038.0423.0027zm2.436.168-.2138 2.9924.005.0003zm4.62-.21-.5884-2.9417-.1191.0238-.1167.0333zm.798-.21-.773-2.8987-.0257.0068-.0255.0073zm2.142.42-2.4412 1.7437.0398.0558.0424.054zm-.168 3.906 2.3046 1.9206zm-1.974 1.344 1.1817 2.7574.0104-.0044.0103-.0045zm-6.342 3.528 1.7741 2.4192.013-.0095.0129-.0097zm-1.428 5.628 1.7076-2.4666zm7.98-.42-1.3043-2.7017-.0092.0045-.0092.0045zm4.368-3.57-2.2778-1.9524-.0289.0338-.0279.0345zm1.134 2.412c-.2977 0-.6822-.0746-1.0605-.3015-.3688-.2213-.5831-.4981-.6909-.6829l5.1827-3.0232c-.6886-1.1805-1.9139-1.9924-3.4313-1.9924zm-1.6562-.8319c-.1138-.1708-.155-.3078-.1674-.3588-.0115-.0473-.0004-.0289-.0004.0807h6c0-.9239-.1693-2.0442-.8399-3.0501zm-.1678-.2781c0 .5015-.1188.6996-.1865.7888l4.777 3.6304c.9962-1.3108 1.4095-2.8487 1.4095-4.4192zm-.1745.773c-1.0351 1.3435-2.3171 2.3987-3.8792 3.1797l2.6833 5.3666c2.358-1.179 4.3519-2.8118 5.9488-4.8843zm-3.8947 3.1875c-1.4615.7414-3.1711 1.1455-5.1948 1.1455v6c2.8483 0 5.5066-.5759 7.9091-1.7945zm-5.1948 1.1455c-1.6187 0-2.8759-.239-3.8419-.6254l-2.2283 5.5708c1.834.7336 3.8809 1.0546 6.0702 1.0546zm-3.7943-.6059c-1.0293-.4323-1.6458-.933-2.0204-1.4185l-4.7507 3.6648c1.1375 1.4745 2.6769 2.5418 4.4477 3.2855zm-1.9637-1.3426c-.3624-.5018-.524-1.0084-.524-1.6035h-6c0 1.8689.5664 3.6023 1.6599 5.1165zm-.524-1.6035c0-.935.3358-1.8186 1.3061-2.7523l-4.1603-4.3234c-1.9976 1.9223-3.1458 4.3147-3.1458 7.0757zm1.3061-2.7523c1.1665-1.1224 2.982-2.3292 5.5905-3.5676l-2.5732-5.4202c-2.9356 1.3936-5.376 2.9308-7.1776 4.6644zm4.2307-9.2768-6.888.168.1463 5.9982 6.888-.168zm-6.9511.1702c.0695-.0032.271.0022.5282.1156.2685.1185.4636.296.5801.4513l-4.8 3.6c.9988 1.3318 2.4746 1.8946 3.9642 1.8269zm1.227.7371c.0072.0111.0137.0233.019.0352.0053.0118.0078.0199.0084.0221.0015.0056-.0081-.0254-.0081-.1075h-6c0 1.1414.2799 2.2846.9433 3.3098zm.0193-.0502c0-.1062.012-.1636.0176-.1849.0049-.019.0074-.0199.0042-.0148l-5.1197-3.1287c-.6338 1.0373-.9021 2.1821-.9021 3.3284zm-.0016-.162c-.033.0523-.1572.2249-.4168.3791-.2742.1627-.5584.2209-.7756.2209v-6c-1.7316 0-3.0753.9212-3.8805 2.196zm-1.1924.6c1.157 0 2.7769.0892 4.8944.2817l.5432-5.9754c-2.1946-.1995-4.0187-.3063-5.4376-.3063zm4.9788.2882c.433.027 1.2326.0821 2.4094.1662l.4275-5.9848c-1.1751-.0839-1.9996-.1408-2.4626-.1698zm2.4144.1665c1.2436.0868 2.3265.1333 3.2328.1333v-6c-.7178 0-1.6509-.0375-2.8152-.1187zm3.2328.1333c.7672 0 1.6981-.2451 2.4201-.4514l-1.6483-5.7692c-.3539.1011-.6091.1648-.7809.2009-.0848.0179-.1301.025-.1436.0268-.0218.003.0386-.0071.1527-.0071zm2.1843-.3943c.2774-.0554.657-.1595 1.0338-.2671l-1.6483-5.7692c-.1844.0527-.3272.0921-.4328.1199-.1176.0309-.1495.037-.1294.033zm.9827-.253c.1325-.0353.2236-.0536.2784-.0624.0574-.0092.0525-.0043-.0014-.0043v-6c-.643 0-1.2733.1227-1.823.2693zm.277-.0667c-.2299 0-.5222-.0548-.8133-.2116-.2835-.1526-.4533-.341-.5359-.4567l4.8824-3.4874c-.7935-1.1108-2.0339-1.8443-3.5332-1.8443zm-1.267-.5585c-.1588-.2022-.1993-.3581-.2009-.3645-.0013-.0051.0046.0169.0106.0722.006.055.0113.1354.0113.2448h6c0-1.0936-.1899-2.4973-1.1031-3.6595zm-.179-.0475c0 .2193-.0263.3194-.031.335-.0018.0059.0024-.0099.0185-.0406.0164-.0314.0418-.0717.0778-.115l4.6093 3.8412c1.0098-1.2117 1.3254-2.6789 1.3254-4.0206zm.0653.1794c.0017-.002-.0464.0555-.1922.1548-.1457.0992-.3646.2235-.6796.3613l2.4049 5.497c1.1305-.4946 2.2479-1.1779 3.0762-2.1719zm-.8511.5072c-2.7021 1.158-5.0395 2.4449-6.9602 3.8854l3.6 4.8c1.4392-1.0795 3.3298-2.1446 5.7237-3.1706zm-6.9343 3.8662c-1.9244 1.4112-3.7459 3.4229-3.7459 6.1152h6c0 .1039-.0442.0662.1086-.158.1687-.2474.5194-.6303 1.1855-1.1188zm-3.7459 6.1152c0 1.9078.9687 3.4185 2.3843 4.3986l3.4153-4.9332c-.0642-.0444.0046-.0128.0851.1294.0389.069.0703.1464.0906.2259.02.0787.0247.1413.0247.1793zm2.3843 4.3986c1.452 1.0052 3.2455 1.2894 4.9417 1.2894v-6c-.5466 0-.9351-.0491-1.1966-.1102-.2605-.0609-.3427-.1213-.3298-.1124zm4.9417 1.2894c2.0846 0 4.1165-.5244 6.0687-1.4833l-2.6454-5.3854c-1.2399.6091-2.372.8687-3.4233.8687zm6.0502-1.4743c2.0753-1.0019 3.87-2.4938 5.3984-4.3876l-4.6692-3.7682c-1.0476 1.2982-2.1649 2.1863-3.3377 2.7524zm5.3415-4.3193c-.0307.0358-.1442.1573-.3613.2699-.2316.12-.5049.1897-.7824.1897v-6c-1.4931 0-2.6482.7448-3.4118 1.6356zm18.3994-2.0364-2.5913 1.5116.0453.0777.0498.0748zm-.462 3.99 2.3764 1.831.0061-.0078.006-.008zm-4.914 4.032-1.3417-2.6833-.0077.0039-.0077.0039zm-11.508.63-1.1617 2.7659.0237.01.0238.0095zm-3.234-2.352-2.432 1.7565.0277.0384.0289.0375zm1.134-8.274-2.0802-2.1617zm6.384-4.116 1.2866 2.7101-1.3598-5.7092zm-6.888.168-.0732-2.9991-.0315.0008-.0315.0014zm-1.428-.63-2.5187 1.6298.0564.0871.0623.0831zm0-3.444-2.5365-1.602-.0118.0187-.0116.0189zm6.51-.504-.2716 2.9877.0422.0038.0422.0027zm2.436.168-.2138 2.9924.005.0003zm4.62-.21-.5884-2.9417-.119.0238-.1168.0333zm.798-.21-.773-2.8987-.0256.0068-.0256.0073zm2.142.42-2.4412 1.7437.0399.0558.0423.054zm-.168 3.906 2.3047 1.9206zm-1.974 1.344 1.1817 2.7574.0104-.0044.0103-.0045zm-6.342 3.528 1.7741 2.4192.013-.0095.0129-.0097zm-1.428 5.628 1.7076-2.4666zm7.98-.42-1.3043-2.7017-.0092.0045-.0092.0045zm4.368-3.57-2.2778-1.9524-.0289.0338-.0279.0345zm1.134 2.412c-.2977 0-.6822-.0746-1.0605-.3015-.3688-.2213-.583-.4981-.6908-.6829l5.1831-3.0232c-.6891-1.1805-1.9144-1.9924-3.4318-1.9924zm-1.6562-.8319c-.1138-.1708-.155-.3078-.1674-.3588-.0114-.0473-.0004-.0289-.0004.0807h5.9998c0-.9239-.169-2.0442-.84-3.0501zm-.1678-.2781c0 .5015-.1187.6996-.1865.7888l4.777 3.6304c.9963-1.3108 1.4093-2.8487 1.4093-4.4192zm-.1744.773c-1.0352 1.3435-2.3172 2.3987-3.8793 3.1797l2.6833 5.3666c2.358-1.179 4.352-2.8118 5.9488-4.8843zm-3.8947 3.1875c-1.4616.7414-3.1712 1.1455-5.1949 1.1455v6c2.8483 0 5.5067-.5759 7.9091-1.7945zm-5.1949 1.1455c-1.6187 0-2.8758-.239-3.8418-.6254l-2.2284 5.5708c1.834.7336 3.8809 1.0546 6.0702 1.0546zm-3.7943-.6059c-1.0293-.4323-1.6458-.933-2.0204-1.4185l-4.7507 3.6648c1.1375 1.4745 2.6769 2.5418 4.4477 3.2855zm-1.9637-1.3426c-.3624-.5018-.524-1.0084-.524-1.6035h-6c0 1.8689.5664 3.6023 1.66 5.1165zm-.524-1.6035c0-.935.3358-1.8186 1.3061-2.7523l-4.1603-4.3234c-1.9976 1.9223-3.1458 4.3147-3.1458 7.0757zm1.3061-2.7523c1.1665-1.1224 2.982-2.3292 5.5905-3.5676l-2.5732-5.4202c-2.9356 1.3936-5.376 2.9308-7.1776 4.6644zm4.2307-9.2768-6.888.168.1463 5.9982 6.888-.168zm-6.951.1702c.0694-.0032.271.0022.5281.1156.2686.1185.4636.296.5801.4513l-4.8 3.6c.9988 1.3318 2.4746 1.8946 3.9642 1.8269zm1.2269.7371c.0072.0111.0138.0233.0191.0352.0053.0118.0077.0199.0083.0221.0015.0056-.0081-.0254-.0081-.1075h-6c0 1.1414.2799 2.2846.9433 3.3098zm.0193-.0502c0-.1062.012-.1636.0176-.1849.005-.019.0074-.0199.0042-.0148l-5.1197-3.1287c-.6338 1.0373-.9021 2.1821-.9021 3.3284zm-.0015-.162c-.0331.0523-.1573.2249-.4169.3791-.2742.1627-.5584.2209-.7756.2209v-6c-1.7315 0-3.0753.9212-3.8805 2.196zm-1.1925.6c1.157 0 2.7769.0892 4.8944.2817l.5432-5.9754c-2.1945-.1995-4.0187-.3063-5.4376-.3063zm4.9788.2882c.433.027 1.2326.0821 2.4094.1662l.4275-5.9848c-1.1751-.0839-1.9995-.1408-2.4626-.1698zm2.4144.1665c1.2436.0868 2.3265.1333 3.2328.1333v-6c-.7177 0-1.6508-.0375-2.8152-.1187zm3.2328.1333c.7672 0 1.6981-.2451 2.4202-.4514l-1.6484-5.7692c-.3539.1011-.6091.1648-.7808.2009-.0848.0179-.1302.025-.1437.0268-.0218.003.0386-.0071.1527-.0071zm2.1843-.3943c.2774-.0554.657-.1595 1.0338-.2671l-1.6483-5.7692c-.1844.0527-.3272.0921-.4328.1199-.1176.0309-.1495.037-.1294.033zm.9827-.253c.1325-.0353.2236-.0536.2785-.0624.0573-.0092.0525-.0043-.0015-.0043v-6c-.643 0-1.2733.1227-1.823.2693zm.277-.0667c-.2299 0-.5222-.0548-.8133-.2116-.2835-.1526-.4533-.341-.5359-.4567l4.8824-3.4874c-.7935-1.1108-2.0339-1.8443-3.5332-1.8443zm-1.267-.5585c-.1588-.2022-.1993-.3581-.2009-.3645-.0013-.0051.0046.0169.0106.0722.006.055.0113.1354.0113.2448h6c0-1.0936-.1899-2.4973-1.1031-3.6595zm-.179-.0475c0 .2193-.0263.3194-.031.335-.0018.0059.0024-.0099.0185-.0406.0164-.0314.0418-.0717.0778-.115l4.6094 3.8412c1.0097-1.2117 1.3253-2.6789 1.3253-4.0206zm.0653.1794c.0017-.002-.0464.0555-.1922.1548-.1456.0992-.3646.2235-.6796.3613l2.4049 5.497c1.1306-.4946 2.2479-1.1779 3.0763-2.1719zm-.8511.5072c-2.7021 1.158-5.0395 2.4449-6.9602 3.8854l3.6 4.8c1.4393-1.0795 3.3299-2.1446 5.7237-3.1706zm-6.9343 3.8662c-1.9244 1.4112-3.7459 3.4229-3.7459 6.1152h6c0 .1039-.0442.0662.1087-.158.1686-.2474.5193-.6303 1.1854-1.1188zm-3.7459 6.1152c0 1.9078.9687 3.4185 2.3844 4.3986l3.4152-4.9332c-.0642-.0444.0047-.0128.0851.1294.039.069.0703.1464.0906.2259.02.0787.0247.1413.0247.1793zm2.3844 4.3986c1.4519 1.0052 3.2454 1.2894 4.9416 1.2894v-6c-.5466 0-.9351-.0491-1.1966-.1102-.2604-.0609-.3426-.1213-.3298-.1124zm4.9416 1.2894c2.0846 0 4.1166-.5244 6.0687-1.4833l-2.6454-5.3854c-1.2399.6091-2.372.8687-3.4233.8687zm6.0502-1.4743c2.0753-1.0019 3.87-2.4938 5.3984-4.3876l-4.6692-3.7682c-1.0476 1.2982-2.1649 2.1863-3.3377 2.7524zm5.3416-4.3193c-.0307.0358-.1443.1573-.3614.2699-.2315.12-.5049.1897-.7824.1897v-6c-1.4931 0-2.6482.7448-3.4118 1.6356zm-2.8848 5.1456-2.3681 1.8418.0126.0162.0128.0161zm.084-11.298 2.6604 1.3864.0039-.0076.004-.0076zm4.116-4.83 1.7288 2.452.007-.0055zm6.7198-1.47-2.368 1.8418.115.1475.132.132zm.546 1.26-2.925.6649.654 2.879 2.889-.6083zm3.318.336 2.035-2.2044zm.126 4.788 2.953.5324.001-.007.001-.007zm-.714 4.914 2.982.3253.001-.0057zm-.924 7.518-2.184-2.0561-.004.0043zm-4.242 0-2.184 2.0561.062.0662.066.0623zm-.672-2.268-2.994-.1871-.006.0934v.0937zm.042-.672 2.994.1871-5.816-1.2044zm-.714-2.268 2.584 1.524zm1.722-5.838-2.948-.5546-.002.0115-.002.0116zm.798-4.242 2.948.5546.686-3.6441-3.707.0904zm-3.192 1.344 1.953 2.2778.018-.0159.018-.0161zm-2.3518 3.36 2.7658 1.1617zm-.42 6.384-2.4722 1.6996.0616.0896.068.0849zm-.336 1.872c-.673 0-1.1174-.2066-1.5634-.7641l-4.6853 3.7482c1.57 1.9625 3.7296 3.0159 6.2487 3.0159zm-1.538-.7318c-.4677-.6013-.838-1.5481-.838-3.1142h-6c0 2.5219.6096 4.8791 2.1019 6.7978zm-.838-3.1142c0-1.7569.4013-3.3953 1.2144-4.9556l-5.3209-2.7728c-1.2589 2.4157-1.8935 5.0053-1.8935 7.7284zm1.2223-4.9708c.8337-1.6224 1.897-2.8475 3.1765-3.7492l-3.4573-4.904c-2.1369 1.5063-3.8176 3.5012-5.0558 5.9108zm3.1835-3.7547c1.283-.9104 2.52-1.2945 3.766-1.2945v-6c-2.617 0-5.0489.8478-7.2381 2.4015zm3.766-1.2945c.129 0 .06.0163-.123-.0403-.191-.0595-.641-.2443-1.027-.7399l4.736-3.6836c-1.117-1.4368-2.835-1.5362-3.586-1.5362zm-.903-.5007c-.13-.1296-.211-.2449-.256-.3166-.046-.0724-.067-.1201-.071-.1289-.004-.0097.003.0044.016.0494.014.0442.032.1096.053.1997l5.851-1.3298c-.163-.7162-.492-1.8582-1.351-2.7164zm3.285 2.0743c.296-.0622.673-.1036 1.146-.1036v-6c-.815 0-1.613.0706-2.382.2324zm1.146-.1036c.092 0 .068.0122-.033-.0203-.112-.0363-.281-.1171-.448-.2713l4.07-4.4088c-1.09-1.0066-2.435-1.2996-3.589-1.2996zm-.481-.2916c-.167-.1547-.288-.3431-.357-.524-.064-.1672-.062-.2685-.062-.2524h6c0-1.2348-.388-2.5955-1.511-3.6324zm-.419-.7764c0 .3521-.093 1.2365-.375 2.8416l5.91 1.0368c.278-1.5869.465-2.9425.465-3.8784zm-.372 2.8276c-.32 1.7716-.568 3.4809-.745 5.1268l5.966.6392c.16-1.4901.387-3.0568.684-4.7012zm-.744 5.1211c-.182 1.6705-.27 3.5179-.27 5.5333h6c0-1.8486.081-3.4732.234-4.8827zm-.27 5.5333c0 .1622-.008.2871-.02.3792-.011.0923-.024.1423-.028.1583-.01.0313.025-.1067.192-.2836l4.369 4.1122c1.217-1.2928 1.487-2.9921 1.487-4.3661zm.14.2582c.096-.103.194-.1769.277-.2267.081-.0486.139-.069.157-.0748.017-.0054 0 .0016-.06.0096s-.153.0157-.286.0157v6c1.329 0 3.04-.2885 4.289-1.6202zm.088-.2762c-.121 0-.21-.0072-.269-.0152-.06-.0081-.085-.016-.082-.0152.003.001.035.0115.086.0401.052.0293.115.073.179.1337l-4.112 4.3692c1.241 1.1684 2.828 1.4874 4.198 1.4874zm.043.2719c.157.1671.193.2997.188.2798-.004-.0113-.015-.055-.026-.1393-.011-.0842-.019-.2001-.019-.3524h-6c0 1.3722.282 3.0432 1.488 4.3241zm.137-.0248.042-.672-5.988-.3742-.042.672zm-5.774-1.8764c-.307.8527-.633 1.2279-.8318 1.388-.1584.1274-.3817.2413-.84.2413v6c1.6698 0 3.2598-.4881 4.5988-1.5647 1.299-1.0439 2.157-2.4747 2.717-4.03zm-.034 3.3873c2.389 0 3.892-1.6991 4.726-3.114l-5.168-3.048c-.095.1609-.171.2645-.221.3259-.052.0616-.066.0666-.036.0435.033-.0249.115-.0803.247-.1284.136-.0497.292-.079.452-.079zm4.726-3.114c.939-1.5925 1.583-4.0073 2.091-6.8305l-5.905-1.063c-.5 2.7768-1.005 4.254-1.354 4.8455zm2.086-6.8074.798-4.242-5.896-1.1092-.798 4.242zm-2.223-7.7957c-1.954.0476-3.677.8298-5.108 2.0973l3.978 4.4916c.529-.4685.934-.5823 1.276-.5907zm-5.071 2.0653c-1.3919 1.1929-2.4288 2.7215-3.1658 4.4761l5.5318 2.3234c.439-1.0454.97-1.7568 1.539-2.2439zm-3.1658 4.4761c-.7475 1.7799-1.116 3.6601-1.116 5.6137h5.9998c0-1.1824.22-2.2702.648-3.2903zm-1.116 5.6137c0 1.1391.1974 2.4789.9898 3.6316l4.944-3.3992c.095.138.109.2222.099.1829-.01-.042-.033-.1707-.033-.4153zm1.1194 3.8061c.8979 1.1225 2.1895 1.7559 3.6444 1.7559v-6c.139 0 .351.0302.582.142.23.1113.38.2554.459.3539zm-83.7638 49.5779.4071-2.9722-.0175-.0024-.0175-.0022zm-2.31-.882-2.18865 2.052zm-.546-2.184-2.99257-.2116-.0016.0226-.00125.0226zm1.386-10.248 2.9529.5295.0006-.0035zm2.646-11.802-2.8889-.8089-.0023.008-.0021.0079zm5.796.882-2.8461-.9487-.0036.0107-.0034.0107zm-2.184 9.03 2.945.5714.0008-.004zm-1.554 10.752-2.9879-.2694-.2668 2.9584 2.9561.296zm13.818-4.326-2.319-1.9033-.0054.0066-.0053.0066zm.798-19.614 2.0729-2.1686zm-14.742-1.68-.9052-2.8602-.0105.0034zm-5.922 2.772-1.63641-2.5144-.03597.0234-.03529.0244zm-2.31004-.21-2.49615 1.6641.02683.0403.02812.0393zm-.084-3.15 2.64704 1.4118.0186-.0349.0176-.0353zm1.134-1.218-1.6889-2.4794-.00515.0035zm6.80404-2.982.7496 2.9048.0146-.0037.0146-.004zm16.38.756-1.3051 2.7012.0123.006.0124.0059zm5.754 5.208 2.589-1.5155zm-.504 19.404 2.6444 1.4167.0052-.0098zm-7.35 7.308-1.4237-2.6407zm-11.508-.396c-1.4572 0-3.1516-.126-5.0949-.3922l-.8143 5.9442c2.1448.294 4.1184.448 5.9092.448zm-5.1299-.3968c-.4024-.0503-.6247-.1152-.7195-.1514-.0985-.0376.0373-.0068.226.1944l-4.37725 4.1038c1.16205 1.239 2.82515 1.644 4.12655 1.807zm-.4935.043c.2091.223.2647.4197.2703.4422.0024.0095-.005-.0167-.0102-.0881-.0051-.071-.0074-.176.0006-.3199l-5.99072-.3328c-.07342 1.3216.10104 3.0674 1.35277 4.4024zm.2579.0794c.1858-2.6278.6291-5.9302 1.3464-9.9301l-5.90585-1.059c-.73877 4.1201-1.21943 7.6497-1.42562 10.5659zm1.347-9.9336c.7129-4.0034 1.5753-7.8481 2.5858-11.535l-5.7866-1.586c-1.0615 3.8731-1.96321 7.8964-2.70627 12.069zm2.5814-11.5191c.0063-.0227-.0128.057-.1053.1727-.0982.1227-.2183.2096-.3178.257l-2.5796-5.4172c-1.4667.6984-2.3759 1.9437-2.7751 3.3697zm-.4231.4297c.043-.0205.3245-.1286 1.0202-.1286v-6c-1.2084 0-2.4669.1719-3.5998.7114zm1.0202-.1286c.2963 0 .479.0213.5728.0388.1.0185.0357.0209-.1119-.0614-.1651-.092-.4264-.2876-.6338-.6344-.2098-.3508-.2651-.6905-.2651-.915h6c0-.7005-.1621-1.4567-.5855-2.1645-.4208-.7038-1.0024-1.1969-1.5945-1.5269-1.0934-.6095-2.3477-.7366-3.382-.7366zm-.438-1.572c0-.0165.0015.0068-.0117.0771-.0131.0701-.0387.1751-.0864.3182l5.6921 1.8974c.2363-.7088.406-1.4866.406-2.2927zm-.1051.4167c-.7827 2.4081-1.538 5.5541-2.2768 9.3899l5.8917 1.1348c.7173-3.7242 1.4179-6.5982 2.0913-8.6701zm-2.276 9.3859c-.7452 3.8407-1.2787 7.526-1.5968 11.054l5.9757.5388c.2979-3.304.8005-6.7867 1.5112-10.45zm1.0925 14.3084c.9608.096 2.0152.141 3.1546.141v-6c-.9887 0-1.8383-.0392-2.5575-.1111zm3.1546.141c5.5276 0 10.16-1.702 13.2916-5.5619l-4.6593-3.7802c-1.6844 2.0761-4.3599 3.3421-8.6323 3.3421zm13.2809-5.5487c2.9909-3.6441 4.3351-8.3442 4.3351-13.7893h-6c0 4.4669-1.0919 7.6908-2.973 9.9827zm4.3351-13.7893c0-3.9211-1.1391-7.3692-3.7831-9.8966l-4.1459 4.3372c1.164 1.1126 1.929 2.8165 1.929 5.5594zm-3.7831-9.8966c-2.6217-2.5061-6.1458-3.5614-10.1369-3.5614v6c2.9529 0 4.8047.7647 5.991 1.8986zm-10.1369-3.5614c-2.558 0-5.089.4005-7.5832 1.1898l1.8103 5.7204c1.9298-.6107 3.8508-.9102 5.7729-.9102zm-7.5937 1.1932c-2.4158.7742-4.6357 1.8082-6.64271 3.1144l3.27271 5.0288c1.521-.9899 3.2491-1.8039 5.2013-2.4296zm-6.71397 3.1622c.04241-.0293.11735-.0722.2226-.106.10664-.0343.21373-.0494.30903-.0494v6c1.06424 0 2.04664-.332 2.88364-.9114zm.53163-.1554c.1852 0 .45452.0415.74044.1897.2846.1476.4676.3397.5668.4786l-4.88244 3.4874c.83506 1.1691 2.11653 1.8443 3.5752 1.8443zm1.36214.7479c.0426.0639.0675.1252.0794.1682.011.0395.0045.0396.0045-.0161h-6.00004c0 1.0803.2639 2.1862.92385 3.1761zm.0839.1521c0-.1733.0147-.2716.0228-.3107.0077-.0376.0046.0012-.0398.0845l-5.2941-2.8236c-.53141.9964-.68894 2.0762-.68894 3.0498zm.0192-.2964c-.0602.1206-.0842.073.1448-.0837l-3.38809-4.9518c-.835.5713-1.61495 1.3357-2.12323 2.3523zm.1397-.0802c1.6062-1.0941 3.5463-1.9583 5.8647-2.5566l-1.4993-5.8096c-2.8896.7457-5.48553 1.8695-7.74324 3.4074zm5.8939-2.5643c2.3799-.6397 4.6234-.9471 6.7392-.9471v-6c-2.7003 0-5.4688.3926-8.2968 1.1529zm6.7392-.9471c3.0676 0 5.5558.5405 7.5569 1.5072l2.6102-5.4024c-2.983-1.4413-6.4028-2.1048-10.1671-2.1048zm7.5816 1.5191c1.9658.9276 3.4183 2.2559 4.4453 4.0104l5.1781-3.031c-1.6609-2.8375-4.0445-4.9812-7.0627-6.4056zm4.4453 4.0104c1.0213 1.7447 1.6051 3.9679 1.6051 6.8005h6c0-3.6634-.7603-6.9842-2.427-9.8315zm1.6051 6.8005c0 3.8258-.7579 7.0222-2.1697 9.6811l5.2993 2.8138c1.9482-3.6691 2.8704-7.8647 2.8704-12.4949zm-2.1645 9.6713c-1.3938 2.6018-3.4119 4.619-6.1292 6.084l2.8473 5.2817c3.7227-2.007 6.6046-4.8621 8.5708-8.5323zm-6.1292 6.084c-2.6972 1.4542-6.0225 2.2447-10.0843 2.2447v6c4.8421 0 9.1889-.945 12.9316-2.963zm36.365-7.3133-2.6414 1.4223zm-.924 3.78-.8892-2.8652-.0512.0159-.0506.0177zm-5.544 1.008-.1249-2.9974-2.2945.0956-.5066 2.2399zm-3.15 5.67 1.9981 2.238.011-.01.0109-.01zm-9.66.882-1.7045 2.469.0135.009.0136.009zm-2.394-13.272 2.6924 1.3234.0044-.009.0043-.0089zm3.36-3.906 1.6298 2.5187.0172-.0112.0171-.0113zm9.87.798-2.2656 1.9664.0198.0228.0202.0224zm2.31 5.418-2.9839.31.2979 2.8676 2.8771-.1837zm4.704-.84-.7276-2.9104-.0157.0039-.0157.0041zm-10.878 7.476-2.2044-2.0348-.0215.0233-.0211.0238zm1.344-3.15 2.9608.4834.3089-1.892-1.5871-1.0752zm-2.016-2.31-2.7144 1.2774.0152.0323.016.0319zm-.546-4.368 2.9487.5529.6661-3.5529h-3.6148zm-3.024 1.638-2.4665-1.7076-.0047.0067-.0047.0068zm-.21 8.064-2.4298 1.7595.0196.0271.0202.0266zm15.918-4.434c-.344 0-.7616-.0945-1.1519-.3482-.3709-.241-.565-.5265-.6495-.6835l5.2828-2.8446c-.6327-1.1751-1.8426-2.1237-3.4814-2.1237zm-1.8014-1.0317c-.0549-.1021-.0708-.171-.0728-.1803-.0015-.0072.0082.0358.0082.144h6c0-.8882-.1526-1.8798-.6526-2.8083zm-.0646-.0363c0 .19-.0147.3-.0236.3469-.009.0472-.0063.0006.0453-.1008.0552-.1086.1595-.265.3344-.4157.1775-.153.3692-.2496.5367-.3016l1.7784 5.7304c1.2244-.38 2.1496-1.2142 2.6982-2.2923.4979-.9787.6306-2.0392.6306-2.9669zm.791-.4376c-1.3666.4783-2.9184.7689-4.6779.8422l.2498 5.9948c2.2726-.0947 4.4168-.4761 6.4102-1.1738zm-7.479 3.1777c-.4158 1.8379-1.1907 3.1547-2.244 4.1139l4.04 4.436c2.0828-1.897 3.4078-4.36 4.0561-7.2261zm-2.222 4.0941c-1.0527.9399-2.1299 1.3378-3.336 1.3378v6c2.77 0 5.2487-1.002 7.3321-2.862zm-3.336 1.3378c-1.1786 0-2.0144-.2775-2.6485-.7052l-3.3549 4.9742c1.7738 1.197 3.822 1.731 6.0034 1.731zm-2.6214-.6867c-.7159-.4943-1.2662-1.1444-1.6654-2.0153l-5.4544 2.5c.8329 1.817 2.0745 3.323 3.7107 4.453zm-1.6654-2.0153c-.4254-.9282-.6512-1.9548-.6512-3.118h-6c0 1.9728.3903 3.8582 1.1968 5.618zm-.6512-3.118c0-1.7407.3302-3.1662.9104-4.3466l-5.3847-2.6468c-1.0438 2.1236-1.5257 4.4781-1.5257 6.9934zm.9191-4.3645c.5967-1.2347 1.3664-2.096 2.2887-2.6928l-3.2595-5.0374c-1.9337 1.2512-3.4041 2.9939-4.4313 5.1192zm2.323-2.7153c.9292-.6195 1.9309-.9242 3.0819-.9242v-6c-2.321 0-4.4833.6473-6.4101 1.9318zm3.0819-.9242c1.3402 0 2.1915.424 2.8584 1.1924l4.5313-3.9328c-1.9091-2.1996-4.4738-3.2596-7.3897-3.2596zm2.8984 1.2376c.8445.9343 1.3863 2.1242 1.5517 3.7164l5.9679-.62c-.2826-2.7198-1.2808-5.1419-3.0683-7.1196zm4.7267 6.4003c1.5698-.1002 3.3377-.4256 5.272-.9315l-1.5181-5.8048c-1.7057.4461-3.0738.6807-4.1361.7485zm5.2405-.9235c.028-.007.0309-.0063.0117-.0036-.0185.0027-.0709.0092-.1513.0092v-6c-.4853 0-.9355.0785-1.3156.1736zm-13.9156 8.6576c1.8342 0 3.3979-.794 4.557-2.1043l-4.494-3.9754c-.0465.0526-.0786.0798-.0933.0911-.0139.0107-.0146.0092-.0023.0034.0127-.006.0276-.0111.0407-.0139.0124-.0027.0115-.0009-.0081-.0009zm4.5144-2.0572c1.2013-1.3013 1.8184-2.9742 2.1004-4.7014l-5.9216-.9668c-.166 1.0168-.4449 1.4439-.5876 1.5986zm.8222-7.6686c-.4353-.2948-.7657-.6687-1.0153-1.1678l-5.3665 2.6832c.7024 1.4049 1.7159 2.571 3.0167 3.4522zm-.9841-1.1036c-.2578-.5478-.3865-1.1191-.3865-1.7466h-6c0 1.5005.3194 2.9452.9576 4.3014zm-.3865-1.7466c0-.2593.0242-.5223.0747-.7911l-5.8973-1.1058c-.1176.6272-.1774 1.2602-.1774 1.8969zm-2.874-4.344h-.21v6h.21zm-.21 0c-2.2968 0-4.0835 1.2012-5.2805 2.9304l4.9331 3.4152c.1825-.2636.2996-.3355.3131-.3434.0073-.0042.0048-.002-.0022-.0001-.0065.0017.0027-.0021.0365-.0021zm-5.2899 2.9439c-1.2045 1.7606-1.6161 3.9599-1.6161 6.2301h6c0-1.6498.3165-2.4745.568-2.8419zm-1.6161 6.2301c0 1.8542.3428 3.7555 1.4522 5.2875l4.8597-3.519c-.0667-.092-.3119-.5427-.3119-1.7685zm1.492 5.3412c1.0232 1.3487 2.5452 2.4048 4.532 2.4048v-6c.05 0 .1127.0066.1807.0247.0678.0181.1216.0424.1577.0629.0702.0399.0296.0393-.0903-.1188zm17.0133 2.1348-2.4962 1.664.023.035.0239.033zm-.756-10.122 2.9617.4777.0012-.0074zm1.386-5.586-2.8461-.9487-.004.0122zm1.176-1.806 1.7564 2.432zm3.654-.252-1.9756 2.2577.0653.0571.0684.0533zm-.084 3.15 2.896.7827.0115-.0423.0102-.0427zm-.672 2.814-2.9418-.5883-.0027.0134-.0026.0136zm-.63 7.14-2.6225 1.4569.0375.0676.041.0655zm2.226-.924-2.3809-1.8253-.0194.0254-.019.0258zm2.016-3.822-2.7598-1.1763-.0082.0193-.008.0193zm2.1-6.3 2.8965.7811.0022-.0081zm1.008-1.806-1.8224-2.3831-.0351.0269-.0343.0279zm3.444-.294-1.6642 2.4961.1011.0674.1061.059zm-.672 6.594-2.928-.6536-.0027.0125zm-.84 7.896-2.4263 1.7645.0406.0558.043.0538zm2.856-.588 1.993 2.2422.005-.0044zm3.108-3.36-2.2778-1.9524-.0118.0138-.0117.0139zm1.974-.084-2.5914 1.5116.0453.0777.0499.0748zm-.462 3.99-2.2705-1.9609-.0302.035-.029.0358zm-3.906 3.654-1.687-2.4808-.0117.008-.0116.008zm-7.686-.126-2.5787 1.533.0152.026.0156.025zm-.924-4.368h3l-5.9105-.7276zm-2.142 4.41 2.181 2.06.0141-.015.0138-.015zm-3.066-1.488c-.1549 0-.2235-.0299-.2681-.0546-.0563-.0312-.1969-.1258-.3907-.3998l-4.8985 3.4644c1.2985 1.836 3.1993 2.99 5.5573 2.99zm-.6119-.3861c-.3873-.5809-.6721-1.424-.6721-2.7039h-6c0 2.1921.4991 4.261 1.6798 6.032zm-.6721-2.7039c0-1.9697.1315-3.7251.3817-5.2763l-5.9235-.9554c-.3098 1.9208-.4582 4.0014-.4582 6.2317zm.3829-5.2837c.2514-1.5838.6716-3.2892 1.2731-5.1198l-5.7001-1.873c-.6865 2.0894-1.1903 4.108-1.4989 6.0522zm1.2691-5.1076c.0771-.2312.1434-.3494.1719-.3932.0255-.0391.0045.0056-.0855.0705l-3.5129-4.864c-1.1887.8585-1.8682 2.097-2.2656 3.2893zm.0864-.3227c-.16.1156-.2374.1118-.1129.0834.1215-.0277.3594-.0614.7505-.0614v-6c-1.3002 0-2.8753.193-4.1505 1.114zm.6376.022c.1674 0 .1813.0151.0953-.005-.0687-.016-.4236-.1044-.8109-.4433l3.9511-4.5154c-1.1159-.9765-2.5438-1.0363-3.2355-1.0363zm-.5819-.3379c-.2754-.2143-.4955-.5003-.6321-.8188-.1288-.3006-.148-.5462-.148-.6673h6c0-1.0839-.3868-2.3561-1.5362-3.2501zm-.7801-1.4861c0-.1236.0093-.2059.01-.2127.0019-.0178.0022-.0152-.0026.0147-.0095.0607-.0287.1681-.0626.3342-.0672.3297-.1737.8033-.3246 1.4341l5.8355 1.3954c.1572-.6572.2816-1.2056.3684-1.6319.0605-.297.1759-.8593.1759-1.3338zm-.3581 1.4853c-.2933 1.085-.5339 2.0892-.7177 3.0084l5.8835 1.1766c.1522-.7608.3596-1.6326.6263-2.6196zm-.723 3.0354c-.5502 2.8887-.8929 5.1296-.8929 6.4413h6c0-.6483.2172-2.3274.787-5.3187zm-.8929 6.4413c0 .6708.053 1.7548.5875 2.7169l5.2449-2.9138c.0832.1497.1272.2716.1491.3416.0223.0713.0295.1143.0301.1181.0009.005-.0024-.0137-.0057-.0611-.0033-.0468-.0059-.1131-.0059-.2017zm.666 2.85c.7871 1.2594 2.0751 1.746 3.216 1.746v-6c.2066 0 .5532.038.9426.2327.4092.2046.7235.512.9293.8413zm3.216 1.746c1.1999 0 2.094-.5803 2.5929-.9847.5376-.436.9951-.976 1.3803-1.5012l-4.8385-3.5482c-.1076.1468-.1925.2499-.2543.3185-.0635.0705-.0861.0863-.0664.0703.0164-.0133.1143-.0913.2933-.1715.1843-.0825.4917-.1832.8927-.1832zm3.9348-2.4347c.8822-1.1507 1.6732-2.7091 2.4111-4.5096l-5.5519-2.2754c-.6621 1.6155-1.2151 2.6051-1.6209 3.1344zm2.3949-4.471c.7992-1.875 1.5413-4.1162 2.2368-6.6952l-5.7931-1.5622c-.6485 2.405-1.3064 4.3638-1.9632 5.9048zm2.239-6.7033c.0637-.239.1208-.3564.1408-.3924.0178-.0319-.017.042-.1398.1417l-3.7835-4.6566c-1.1314.9192-1.7059 2.2023-2.015 3.3613zm-.0684-.1959c-.1381.1056-.2268.1216-.1854.1109.0463-.0121.1891-.04.4631-.04v-6c-1.2464 0-2.7074.2338-3.9224 1.1629zm.2777.0709c.2058 0 .2818.0146.2661.0116-.0119-.0022-.0716-.0139-.1641-.0472-.0911-.0328-.2435-.0971-.4222-.2163l3.3283-4.9922c-1.0542-.7028-2.3065-.7559-3.0081-.7559zm-.113-.1255c-.4769-.265-.8114-.6678-.9953-1.0764-.1628-.3617-.1697-.6386-.1697-.7061h6c0-.9578-.3163-2.5709-1.9211-3.4625zm-1.165-1.7825c0-.0273-.0006.0667-.0392.3558-.0353.2637-.0921.6167-.1746 1.0691-.165.904-.418 2.1247-.7642 3.6755l5.8559 1.3072c.3538-1.5852.6258-2.8915.8108-3.9055.1694-.9285.3113-1.8406.3113-2.5021zm-.9807 5.1129c-.396 1.81-.6994 3.3026-.9053 4.4646-.1922 1.0845-.34 2.0929-.34 2.8125h6c0 .0036.0001-.0355.0081-.1316.0076-.0921.0206-.2152.0409-.3735.0409-.3182.1058-.7351.1989-1.2604.1861-1.05.4707-2.4554.8588-4.2294zm-1.2453 7.2771c0 .9212.1908 2.036.9097 3.0245l4.8525-3.529c.2709.3725.2378.6473.2378.5045zm.9933 3.1341c.8033 1.0039 1.9654 1.5459 3.2247 1.5459v-6c.2112 0 .4951.043.7963.1864.3025.1441.522.3416.6643.5195zm3.2247 1.5459c1.6928 0 3.0589-.9586 3.967-1.7658l-3.9861-4.4844c-.1215.108-.2205.1858-.297.2404-.077.0549-.1218.0793-.1348.086-.0362.0185.1297-.0762.4509-.0762zm3.972-1.7702c.95-.8482 2.0976-2.1026 3.4112-3.6731l-4.6025-3.8494c-1.2624 1.5095-2.1868 2.4951-2.8048 3.0469zm3.3877-3.6454c-.0307.0358-.1442.1573-.3613.2699-.2316.12-.5049.1897-.7824.1897v-6c-1.4932 0-2.6482.7448-3.4118 1.6356zm-1.1437.4596c-.2977 0-.6823-.0746-1.0605-.3015-.3689-.2213-.5831-.4981-.6909-.6829l5.1827-3.0232c-.6886-1.1805-1.9139-1.9924-3.4313-1.9924zm-1.6562-.8319c-.1139-.1708-.155-.3078-.1674-.3588-.0115-.0473-.0004-.0289-.0004.0807h6c0-.9239-.1693-2.0442-.8399-3.0501zm-.1678-.2781c0 .6707-.1581.7469-.0685.6431l4.5409 3.9218c1.1536-1.3358 1.5276-2.9956 1.5276-4.5649zm-.1277.7139c-1.0431 1.2856-2.134 2.2954-3.2633 3.0633l3.3739 4.9618c1.6707-1.136 3.1838-2.562 4.5487-4.2449zm-3.2866 3.0793c-.8406.5833-1.8046.8928-2.9937.8928v6c2.3388 0 4.5108-.643 6.4142-1.963zm-2.9937.8928c-.1439 0-.2384-.0139-.2935-.0261-.0531-.0118-.0735-.0227-.0736-.0228-.001-.0005-.0003-.0002.0009.0007.0012.0008.0005.0005-.0024-.0023-.0049-.0046-.0289-.0283-.0656-.0873l-5.0957 3.1678c1.2549 2.019 3.275 2.97 5.5299 2.97zm-.4034-.0872c-.2274-.3824-.5026-1.2238-.5026-2.8348h-6c0 2.141.3407 4.212 1.3453 5.901zm-6.4131-3.5624c-.3999 1.5998-.9348 2.5573-1.4405 3.1077l4.4179 4.0599c1.3983-1.522 2.2914-3.5042 2.8435-5.7124zm-1.4126 3.0777c-.5473.5796-.8279.5719-.8849.5719v6c2.1269 0 3.8903-1.016 5.247-2.452zm36.5757-5.3741-2.642 1.4223.067.1243.079.1175zm.042 2.814 2.641 1.4223zm-.924.966-1.664-2.4962-.007.0045-.007.0045zm-5.2923 3.612 1.6731 2.49.0238-.016.0235-.016zm-2.688 1.806-1.673-2.4901-1.0494.7051-.2283 1.243zm-4.2 13.65-2.6557-1.395-.007.013-.0069.014zm-10.038 3.654 2.1214-2.121-.0169-.017-.0171-.017zm1.008-9.87-2.4676-1.706-.0049.007-.0049.007zm8.82-8.4 1.8344 2.374.9485-.733.1823-1.185zm.252-1.638 2.9652.456-5.5039-2.0544zm-1.89 1.764 1.381 2.663.0179-.009.0178-.01zm-6.426-1.302 2.3173-1.9053zm0-11.298 2.6605 1.3864.0039-.0076.0039-.0076zm4.116-4.83 1.7285 2.452.0078-.0055zm6.72-1.47-2.368 1.8418.1147.1475.132.132zm.546 1.26-2.9254.6649.6544 2.879 2.8891-.6083zm3.318.168-1.874 2.3426.1266.1013.1368.0871zm.42 2.016-2.9698-.4243-.0029.0202-.0026.0202zm-1.05 6.594-2.9591-.4932zm-.378 2.226-2.9563-.5097-.0074.0426-.0061.0428zm-.378 2.52-2.964-.4631-1.1699 7.4881 5.9779-4.6586zm6.2163-4.452-1.573-2.555-.029.0183-.029.0189zm-12.0123 3.738 2.4 1.8zm1.26-3.36-2.9488-.5518-.0037.0201-.0035.0201zm1.344-7.182 2.9489.5518.6814-3.6412-3.7034.0903zm-3.192 1.344 1.9524 2.2778.0185-.0159.0182-.0161zm-2.352 3.36 2.766 1.1617zm-.378 6.384-2.3426 1.8741.0369.0461.0387.0446zm.336 17.178-2.647-1.412-.0092.018-.009.017zm2.562-8.022 2.9291.648 1.9427-8.775-6.8241 5.849zm-4.662 4.998 2.5251 1.62zm-1.176 5.082-2.6336 1.437.0484.088.0543.086zm19.2363-20.856c-.344 0-.762-.0945-1.152-.3482-.371-.241-.565-.5265-.65-.6835l5.283-2.8446c-.633-1.1752-1.842-2.1237-3.481-2.1237zm-1.656-.7899c-.194-.291-.168-.4869-.168-.3621h6c0-.9392-.198-2.0031-.84-2.9661zm-.168-.3621c0 .0856-.004.1521-.008.2016-.004.0496-.009.0775-.011.0868-.001.0094.001-.005.012-.0381.011-.0333.033-.0893.071-.1606l5.283 2.8446c.527-.9788.653-2.045.653-2.9343zm.064.0897c.04-.0731.078-.1181.096-.1369.016-.0172.008-.0048-.042.029l3.328 4.9923c.739-.4929 1.426-1.1576 1.901-2.0398zm.04-.0989c-2.4099 1.6254-4.192 2.8417-5.3346 3.6415l3.4407 4.9157c1.0969-.768 2.8429-1.96 5.2489-3.5828zm-5.2873 3.6091-2.688 1.806 3.3461 4.9801 2.688-1.806zm-3.9657 3.7541c-1.037 5.65-2.3669 9.869-3.905 12.797l5.3115 2.79c1.9339-3.68 3.404-8.561 4.4949-14.503zm-3.9189 12.824c-1.4333 2.796-2.7896 3.366-3.8824 3.366v6c4.2272 0 7.239-2.762 9.2217-6.63zm-3.8824 3.366c-.7425 0-1.1047-.205-1.3646-.465l-4.2427 4.242c1.532 1.532 3.4939 2.223 5.6073 2.223zm-1.3986-.499c-.2265-.219-.4314-.545-.4314-1.289h-6c0 2.112.6912 4.082 2.2567 5.599zm-.4314-1.289c0-1.188.4708-2.745 1.8294-4.734l-4.9548-3.384c-1.7774 2.603-2.8746 5.33-2.8746 8.118zm1.8197-4.72c1.2946-1.873 3.9293-4.442 8.1867-7.732l-3.6687-4.7479c-4.3666 3.3739-7.6119 6.4049-9.4533 9.0679zm9.3175-9.65.252-1.638-5.9303-.9122-.252 1.6382zm-5.2519-3.6924c-.2002.318-.4444.5446-.7679.718l2.8333 5.2884c1.2445-.666 2.2603-1.616 3.012-2.81zm-.7322.6991c-.3839.1991-.6696.2513-.8871.2513v6c1.2946 0 2.5209-.34 3.649-.925zm-.8871.2513c-.9047 0-1.4152-.2778-1.8407-.7953l-4.6345 3.8103c1.6465 2.003 3.908 2.985 6.4752 2.985zm-1.8407-.7953c-.4921-.5986-.8713-1.5213-.8713-3.0507h-6c0 2.5586.6569 4.94 2.2368 6.861zm-.8713-3.0507c0-1.7569.4014-3.3953 1.2145-4.9556l-5.3209-2.7728c-1.2589 2.4157-1.8936 5.0053-1.8936 7.7284zm1.2223-4.9708c.8338-1.6224 1.8971-2.8475 3.1762-3.7492l-3.4569-4.904c-2.1369 1.5063-3.8176 3.5012-5.0559 5.9108zm3.184-3.7547c1.2828-.9104 2.5191-1.2945 3.7657-1.2945v-6c-2.6174 0-5.049.8478-7.2382 2.4015zm3.7657-1.2945c.1293 0 .0598.0163-.1227-.0403-.1915-.0595-.6419-.2443-1.0273-.7399l4.7361-3.6836c-1.1175-1.4368-2.8348-1.5362-3.5861-1.5362zm-.9033-.5007c-.1296-.1296-.2111-.2449-.2563-.3166-.0456-.0724-.0667-.1201-.0705-.1289-.0043-.0097.0025.0044.0165.0494.0137.0442.0318.1096.0522.1997l5.8508-1.3298c-.1627-.7162-.4918-1.8582-1.35-2.7164zm3.2854 2.0743c.2805-.059.6817-.1036 1.2299-.1036v-6c-.8517 0-1.6825.0674-2.466.2324zm1.2299-.1036c.2057 0 .265.0179.2241.0086-.0254-.0058-.0988-.0244-.2033-.07-.1052-.0459-.2573-.126-.4248-.26l3.7481-4.6852c-1.1242-.8994-2.516-.9934-3.3441-.9934zm-.1406-.133c-.4896-.3116-.7402-.7316-.8478-1.0155-.0938-.2471-.0796-.3821-.0796-.2975h6.0003c0-.9265-.211-2.705-1.8516-3.749zm-.9274-1.313c0 .1283-.0027.2248-.0063.2938-.0038.0721-.0076.0945-.0055.0799l5.9401.8486c.057-.4.072-.8275.072-1.2223zm-.0173.4141c-.1033.8006-.4423 2.9356-1.0338 6.4847l5.9183.9864c.5841-3.5069.9451-5.7679 1.0661-6.7033zm-1.0338 6.4847c-.111.6655-.236 1.4019-.3752 2.2095l5.9127 1.0194c.1408-.8164.2677-1.564.3808-2.2425zm-.3887 2.2949c-.1099.7694-.2339 1.5963-.3722 2.4812l5.9281.9262c.1417-.9071.2697-1.7602.3838-2.5588zm4.4358 5.3107c2.0975-1.6344 4.0983-3.0665 6.0033-4.3006l-3.262-5.0356c-2.0716 1.3419-4.2147 2.8778-6.4292 4.6034zm5.9443-4.2634c.041-.0255.016-.0041-.072.0265-.089.031-.275.0825-.534.0825v-6c-1.055 0-1.932.4077-2.539.781zm-15.4323 5.359c2.001 0 3.3981-1.2427 4.248-2.376l-4.8-3.6c-.1467.1957-.1952.203-.1136.151.0464-.0295.1308-.0753.2522-.1131.1239-.0385.2649-.0619.4134-.0619zm4.248-2.376c.9806-1.3074 1.5208-2.9422 1.8161-4.6484l-5.9121-1.0232c-.2087 1.2058-.5085 1.811-.704 2.0716zm1.8089-4.6082 1.344-7.182-5.8977-1.1036-1.344 7.182zm-1.678-10.7329c-1.9539.0476-3.6768.8298-5.108 2.0973l3.9782 4.4916c.5289-.4685.934-.5823 1.2761-.5907zm-5.0712 2.0653c-1.3917 1.1929-2.4287 2.7215-3.1656 4.4761l5.5319 2.3234c.439-1.0454.9701-1.7568 1.5384-2.2439zm-3.1656 4.4761c-.7476 1.7799-1.1161 3.6601-1.1161 5.6137h6c0-1.1824.2195-2.2702.648-3.2903zm-1.1161 5.6137c0 1.1604.208 2.6143 1.1614 3.8061l4.6852-3.7482c.1498.1871.1846.3275.1823.3188-.0008-.003-.0085-.0338-.0157-.099-.0072-.0649-.0132-.1563-.0132-.2777zm1.237 3.8968c.9996 1.1532 2.3568 1.6652 3.737 1.6652v-6c.0357 0 .1703.0071.3523.0851.1899.0814.3426.2022.4448.3201zm.251 20.7332c1.5839 0 2.6969-.93 3.3062-1.583.6606-.708 1.2211-1.611 1.7111-2.56l-5.3305-2.754c-.1809.35-.3413.625-.479.835-.1399.213-.2379.331-.2879.385-.0551.059-.0113-.004.1431-.091.1675-.095.4923-.232.937-.232zm4.9991-4.108c1.0954-2.054 2.0186-5.057 2.844-8.786l-5.8581-1.296c-.7986 3.607-1.5834 5.952-2.28 7.258zm-2.0374-11.712c-2.2602 1.938-4.0587 3.823-5.2347 5.656l5.0501 3.24c.728-1.135 2.0375-2.582 4.0893-4.34zm-5.2347 5.656c-1.0989 1.713-1.903 3.59-1.903 5.526h6c0-.304.148-1.031.9531-2.286zm-1.903 5.526c0 .807.1395 1.735.6184 2.613l5.2673-2.874c.0724.133.1007.237.1107.283.0096.045.0036.043.0036-.022zm.7211 2.787c.8374 1.316 2.1905 1.851 3.4549 1.851v-6c.155 0 .4515.029.7957.201.3619.181.6357.45.8113.726zm37.2442-35.043-2.184 2.0561.062.0662.066.0623zm.252 6.132 2.961.4853.003-.0161.002-.0161zm-.672 4.872 2.982.3313.001-.006zm-.924 7.392-2.184-2.0561-.004.0043zm-4.116-.042 2.25-1.9849zm-.042-7.686 2.966.4513.001-.0063zm-1.512-3.528 2.427 1.7645.012-.0171.012-.0174zm-2.016 3.696 2.75 1.1998zm-1.638 4.872-2.913-.7164-.004.0164-.004.0163zm-1.092 2.688-2.249-1.9849-.008.0094zm-3.822-.252-2.562 1.56.04.066.044.064zm-.798-2.94-2.9828.3174zm1.092-19.278-2.946-.5646-.002.0085-.001.0086zm3.906-11.76-2.635-1.4333-.005.0082zm9.324-3.108-2.457 1.7204.024.0352.026.0345zm-1.26 13.104 2.633 1.4383.006-.0102zm-8.064 10.626-2.21-2.0279-.723.7879-.062 1.0672zm-.126 4.494h-3l5.797 1.0857zm3.066-5.796-2.389-1.8141-.005.0069zm3.36-3.234-1.495-2.6007-.014.0082-.015.0084zm-2.646-14.532 2.755 1.1883.004-.0097.004-.0097zm-1.806 5.838-2.918-.6964-.003.0121-.002.0122zm-1.386 7.98-2.976-.3757-1.262 10.0006 6.525-7.6829zm4.284-6.678-2.708-1.291-.006.0129-.006.0129zm1.428-8.61 2.774-1.1423zm3.192 18.036c.191 0 .231.0263.175.0064-.031-.0109-.084-.0335-.149-.0751-.066-.0422-.133-.0964-.194-.1612l4.369-4.1122c-1.201-1.2756-2.794-1.6579-4.201-1.6579zm-.04-.1014c-.065-.061-.119-.1278-.161-.1939-.041-.0653-.064-.1184-.075-.1492-.02-.0561.006-.0162.006.1745h6c0-1.4065-.382-3.0001-1.658-4.2006zm-.23-.1686c0 .4662-.115 1.6205-.427 3.6629l5.931.9062c.304-1.9896.496-3.5793.496-4.5691zm-.422 3.6307c-.288 1.755-.519 3.4327-.694 5.032l5.965.6506c.161-1.4807.378-3.051.65-4.712zm-.693 5.026c-.183 1.6438-.271 3.451-.271 5.4133h6c0-1.7897.081-3.3705.234-4.7507zm-.271 5.4133c0 .1622-.008.2871-.019.3792-.012.0923-.025.1423-.029.1583-.009.0313.025-.1067.192-.2836l4.369 4.1121c1.217-1.293 1.487-2.992 1.487-4.366zm.14.2582c.096-.103.194-.1769.277-.2267.081-.0486.139-.069.157-.0748.017-.0054.001.0016-.06.0096-.06.008-.153.0157-.286.0157v6c1.329 0 3.041-.289 4.289-1.62zm.088-.2762c-.216 0-.26-.0294-.195-.0064.037.013.102.0409.183.0939.083.0539.168.1253.246.2136l-4.499 3.9699c1.209 1.37 2.881 1.729 4.265 1.729zm.234.3011c.126.1429.158.254.156.2459-.002-.0062-.011-.0402-.02-.1088-.008-.0686-.016-.1653-.016-.2942h-6c0 1.328.285 2.885 1.381 4.127zm.12-.1571c0-.8721.163-2.5226.554-5.0927l-5.931-.9026c-.393 2.5819-.623 4.6274-.623 5.9953zm.555-5.099c.326-2.1697.537-3.8419.537-4.729h-6c0 .3449-.124 1.5287-.47 3.839zm.537-4.729c0-.4746-.064-1.3619-.643-2.2036-.718-1.0444-1.83-1.4684-2.819-1.4684v6c-.287 0-.683-.0531-1.106-.2586-.438-.2123-.781-.5275-1.019-.8738-.425-.6177-.413-1.169-.413-1.1956zm-3.462-3.672c-1.378 0-2.329.8151-2.691 1.148-.484.4452-.923.9973-1.314 1.55l4.902 3.46c.133-.1881.243-.3303.329-.4342.089-.1067.136-.152.143-.1578.014-.0128-.069.068-.246.1633-.17.0922-.564.2707-1.123.2707zm-3.98 2.6635c-.844 1.1611-1.617 2.6052-2.339 4.2607l5.499 2.3996c.622-1.4245 1.193-2.4444 1.693-3.1313zm-2.339 4.2607c-.743 1.7033-1.343 3.4896-1.802 5.3554l5.827 1.4328c.381-1.5502.873-3.0119 1.474-4.3886zm-1.81 5.3881c-.131.5609-.257.9543-.362 1.2136-.114.2813-.157.2848-.058.1732l4.499 3.9699c.95-1.077 1.443-2.619 1.763-3.9893zm-.428 1.3962c.182-.2079.378-.3088.486-.3471.088-.0312.07-.0054-.119-.0054v6c1.329 0 2.965-.345 4.148-1.696zm.367-.3525c-.081 0 .001-.0139.161.0626.079.0377.158.0891.231.1526.073.0629.123.1243.155.1708l-4.957 3.38c1.077 1.58 2.739 2.234 4.41 2.234zm.631.5162c-.049-.0807-.254-.5376-.377-1.6976l-5.9668.6348c.1566 1.4716.4837 2.9756 1.2188 4.1826zm-.377-1.6976c-.123-1.1543-.194-2.9588-.194-5.4786h-5.9996c0 2.5762.0696 4.6357.2268 6.1134zm-.194-5.4786c0-4.1107.414-8.4208 1.252-12.9345l-5.899-1.095c-.8984 4.8383-1.3526 9.5162-1.3526 14.0295zm1.249-12.9174c.856-4.4666 2.075-8.0762 3.599-10.8995l-5.28-2.8502c-1.891 3.5047-3.276 7.735-4.212 12.6205zm3.595-10.8913c1.504-2.7653 2.772-3.2213 3.58-3.2213v-6c-4.008 0-6.883 2.736-8.851 6.3547zm3.58-3.2213c.194 0 .277.0377.317.0591.046.025.166.1021.334.3413l4.915-3.4408c-1.305-1.8638-3.23-2.9596-5.566-2.9596zm.701.4701c.327.4395.625 1.1834.625 2.4939h6c0-2.2175-.513-4.3296-1.81-6.0741zm.625 2.4939c0 2.2282-.648 4.68-2.116 7.3919l5.277 2.8562c1.836-3.3921 2.839-6.8203 2.839-10.2481zm-2.11 7.3817c-1.488 2.7234-3.997 6.0623-7.642 10.0364l4.421 4.0558c3.803-4.1459 6.67-7.891 8.486-11.2156zm-8.427 11.8915c-.087 1.5166-.131 3.0723-.131 4.6668h6c0-1.4855.041-2.9258.121-4.3212zm5.666 5.7525c.858-2.2108 1.76-3.8762 2.664-5.0745l-4.789-3.6144c-1.336 1.7697-2.479 3.9683-3.468 6.5174zm2.659-5.0676c1.018-1.3413 1.862-2.091 2.494-2.464l-3.048-5.1682c-1.551.915-2.947 2.3213-4.225 4.004zm2.466-2.4474c.837-.4814 1.339-.5667 1.57-.5667v-6c-1.617 0-3.158.5587-4.561 1.3653zm-2.462-22.3167c-1.724 0-2.77 1.1893-3.175 1.7169-.509.6611-.92 1.4777-1.268 2.2982l5.526 2.3378c.127-.2998.238-.5304.33-.7021.095-.1764.153-.2575.167-.2757.022-.0289-.062.092-.274.2373-.227.1555-.678.3876-1.306.3876zm-4.434 3.9957c-.714 1.6543-1.363 3.7882-1.97 6.3299l5.836 1.3928c.57-2.3863 1.125-4.1444 1.643-5.3461zm-1.975 6.3542c-.586 2.5481-1.064 5.3084-1.439 8.2764l5.953.7514c.353-2.8.799-5.3597 1.333-7.6836zm3.824 10.5941c1.908-2.2471 3.483-4.7004 4.718-7.3548l-5.441-2.5304c-1.005 2.1616-2.287 4.1603-3.85 6.0012zm4.705-7.329c1.275-2.6735 2.014-5.3054 2.014-7.843h-6c0 1.3824-.408 3.1185-1.43 5.261zm2.014-7.843c0-1.0408-.103-2.1878-.52-3.2003l-5.548 2.2845c-.023-.0559 0-.0219.025.1536.024.1687.043.4174.043.7622zm-.52-3.2003c-.431-1.0485-1.531-2.5717-3.614-2.5717v6c-.537 0-1.063-.1985-1.46-.5357-.34-.2893-.458-.5709-.474-.6081z" fill="#000"/><path d="m49.0445 29.968c0 2.38-.616 4.564-1.848 6.552s-3.024 3.612-5.376 4.872-5.152 2.002-8.4 2.226l-1.806 10.122c-.7 3.892-2.604 5.838-5.712 5.838-1.708 0-3.29-.504-4.746-1.512-1.428-1.008-2.576-2.548-3.444-4.62s-1.302-4.62-1.302-7.644c0-5.684.91-10.5 2.73-14.448 1.848-3.976 4.312-6.944 7.392-8.904 3.108-1.988 6.524-2.982 10.248-2.982 2.632 0 4.858.462 6.678 1.386 1.848.924 3.234 2.184 4.158 3.78.952 1.568 1.428 3.346 1.428 5.334zm-14.868 9.324c5.74-.728 8.61-3.71 8.61-8.946 0-1.848-.616-3.346-1.848-4.494-1.204-1.176-3.08-1.764-5.628-1.764-2.884 0-5.404.91-7.56 2.73-2.128 1.82-3.78 4.354-4.956 7.602-1.148 3.22-1.722 6.902-1.722 11.046 0 1.736.168 3.276.504 4.62.364 1.344.812 2.394 1.344 3.15.56.728 1.092 1.092 1.596 1.092.7 0 1.232-.966 1.596-2.898l1.386-7.938c-1.092-.168-1.568-.238-1.428-.21-.84-.14-1.386-.392-1.638-.756-.252-.392-.378-.882-.378-1.47 0-.616.168-1.106.504-1.47.364-.364.854-.546 1.47-.546.28 0 .49.014.63.042.672.112 1.19.182 1.554.21.364-2.184.882-5.11 1.554-8.778.168-.952.546-1.624 1.134-2.016.616-.42 1.33-.63 2.142-.63.924 0 1.582.182 1.974.546.42.336.63.882.63 1.638 0 .448-.028.812-.084 1.092zm19.1149-6.636c-1.176 0-2.058-.266-2.646-.798-.588-.56-.882-1.33-.882-2.31s.378-1.792 1.134-2.436c.784-.672 1.75-1.008 2.898-1.008 1.036 0 1.876.252 2.52.756s.966 1.218.966 2.142c0 1.12-.364 2.016-1.092 2.688-.728.644-1.694.966-2.898.966zm-.336 22.554c-1.82 0-3.15-.644-3.99-1.932-.812-1.288-1.218-2.996-1.218-5.124 0-1.26.154-2.87.462-4.83.336-1.988.756-3.836 1.26-5.544.252-.896.588-1.512 1.008-1.848s1.092-.504 2.016-.504c1.428 0 2.142.476 2.142 1.428 0 .7-.266 2.324-.798 4.872-.672 3.08-1.008 5.166-1.008 6.258 0 .84.112 1.484.336 1.932s.602.672 1.134.672c.504 0 1.134-.35 1.89-1.05s1.764-1.806 3.024-3.318c.336-.392.714-.588 1.134-.588.364 0 .644.168.84.504.224.336.336.798.336 1.386 0 1.12-.266 1.988-.798 2.604-2.772 3.388-5.362 5.082-7.77 5.082zm25.3077-9.576c.364 0 .644.168.84.504.224.336.336.798.336 1.386 0 1.036-.266 1.904-.798 2.604-1.316 1.708-2.954 3.052-4.914 4.032-1.932.98-4.116 1.47-6.552 1.47-1.904 0-3.556-.28-4.956-.84-1.4-.588-2.478-1.372-3.234-2.352-.728-1.008-1.092-2.128-1.092-3.36 0-1.848.742-3.486 2.226-4.914s3.612-2.8 6.384-4.116l-6.888.168c-.616.028-1.092-.182-1.428-.63-.308-.476-.462-1.036-.462-1.68 0-.672.154-1.26.462-1.764.336-.532.784-.798 1.344-.798 1.288 0 3.01.098 5.166.294.448.028 1.26.084 2.436.168 1.204.084 2.212.126 3.024.126.28 0 .812-.112 1.596-.336.14-.028.406-.098.798-.21.42-.112.77-.168 1.05-.168.448 0 .812.196 1.092.588.308.392.462.994.462 1.806 0 .896-.21 1.596-.63 2.1s-1.078.952-1.974 1.344c-2.548 1.092-4.662 2.268-6.342 3.528-1.68 1.232-2.52 2.464-2.52 3.696 0 .784.364 1.428 1.092 1.932s1.806.756 3.234.756c1.568 0 3.15-.392 4.746-1.176 1.624-.784 3.08-1.974 4.368-3.57.336-.392.714-.588 1.134-.588zm18.7031 0c.364 0 .644.168.84.504.224.336.336.798.336 1.386 0 1.036-.266 1.904-.798 2.604-1.316 1.708-2.954 3.052-4.914 4.032-1.932.98-4.116 1.47-6.552 1.47-1.904 0-3.556-.28-4.956-.84-1.4-.588-2.478-1.372-3.234-2.352-.728-1.008-1.092-2.128-1.092-3.36 0-1.848.742-3.486 2.226-4.914s3.612-2.8 6.384-4.116l-6.888.168c-.616.028-1.092-.182-1.428-.63-.308-.476-.462-1.036-.462-1.68 0-.672.154-1.26.462-1.764.336-.532.784-.798 1.344-.798 1.288 0 3.01.098 5.166.294.448.028 1.26.084 2.436.168 1.204.084 2.212.126 3.024.126.28 0 .812-.112 1.596-.336.14-.028.406-.098.798-.21.42-.112.77-.168 1.05-.168.448 0 .812.196 1.092.588.308.392.462.994.462 1.806 0 .896-.21 1.596-.63 2.1s-1.078.952-1.974 1.344c-2.548 1.092-4.662 2.268-6.342 3.528-1.68 1.232-2.52 2.464-2.52 3.696 0 .784.364 1.428 1.092 1.932s1.806.756 3.234.756c1.568 0 3.15-.392 4.746-1.176 1.624-.784 3.08-1.974 4.368-3.57.336-.392.714-.588 1.134-.588zm2.165 9.576c-1.596 0-2.898-.63-3.906-1.89-.98-1.26-1.47-2.912-1.47-4.956 0-2.24.518-4.354 1.554-6.342 1.036-2.016 2.408-3.626 4.116-4.83 1.7358-1.232 3.5698-1.848 5.5018-1.848.616 0 1.022.126 1.218.378.224.224.406.644.546 1.26.532-.112 1.12-.168 1.764-.168.672 0 1.19.168 1.554.504s.546.812.546 1.428c0 .644-.14 1.764-.42 3.36-.308 1.708-.546 3.346-.714 4.914-.168 1.54-.252 3.276-.252 5.208 0 1.064-.224 1.834-.672 2.31-.42.448-1.12.672-2.1.672-.952 0-1.666-.224-2.142-.672-.448-.476-.672-1.232-.672-2.268l.042-.672c-.868 2.408-2.366 3.612-4.4938 3.612zm1.6378-4.242c.784 0 1.498-.546 2.142-1.638s1.218-3.038 1.722-5.838l.798-4.242c-1.148.028-2.212.476-3.192 1.344-.98.84-1.764 1.96-2.3518 3.36-.588 1.4-.882 2.884-.882 4.452 0 .84.154 1.484.462 1.932.336.42.7698.63 1.3018.63zm-81.9062 51.242c-1.624 0-3.458-.14-5.502-.42-1.12-.14-1.89-.434-2.31-.882s-.602-1.176-.546-2.184c.196-2.772.658-6.188 1.386-10.248.728-4.088 1.61-8.022 2.646-11.802.196-.7.588-1.19 1.176-1.47s1.358-.42 2.31-.42c1.708 0 2.562.476 2.562 1.428 0 .392-.084.84-.252 1.344-.728 2.24-1.456 5.25-2.184 9.03-.728 3.752-1.246 7.336-1.554 10.752.84.084 1.792.126 2.856.126 4.9 0 8.554-1.484 10.962-4.452 2.436-2.968 3.654-6.93 3.654-11.886 0-3.332-.952-5.908-2.856-7.728s-4.592-2.73-8.064-2.73c-2.24 0-4.466.35-6.678 1.05-2.184.7-4.158 1.624-5.922 2.772-.364.252-.75604.378-1.17604.378-.476 0-.854-.196-1.134-.588-.28-.42-.42-.924-.42-1.512 0-.672.112-1.218.336-1.638.224-.448.602-.854 1.134-1.218 1.93204-1.316 4.20004-2.31 6.80404-2.982 2.604-.7 5.11-1.05 7.518-1.05 3.416 0 6.37.602 8.862 1.806 2.492 1.176 4.41 2.912 5.754 5.208s2.016 5.068 2.016 8.316c0 4.228-.84 7.924-2.52 11.088-1.68 3.136-4.13 5.572-7.35 7.308s-7.056 2.604-11.508 2.604zm45.6093-13.104c.364 0 .644.182.84.546s.294.826.294 1.386c0 1.344-.406 2.142-1.218 2.394-1.68.588-3.528.924-5.544 1.008-.532 2.352-1.582 4.242-3.15 5.67-1.568 1.4-3.346 2.1-5.334 2.1-1.68 0-3.122-.406-4.326-1.218-1.176-.812-2.072-1.89-2.688-3.234s-.924-2.8-.924-4.368c0-2.128.406-4.018 1.218-5.67.812-1.68 1.932-2.982 3.36-3.906 1.428-.952 3.01-1.428 4.746-1.428 2.128 0 3.836.742 5.124 2.226 1.316 1.456 2.086 3.262 2.31 5.418 1.316-.084 2.884-.364 4.704-.84.224-.056.42-.084.588-.084zm-13.776 8.652c.896 0 1.666-.364 2.31-1.092.672-.728 1.12-1.778 1.344-3.15-.868-.588-1.54-1.358-2.016-2.31-.448-.952-.672-1.96-.672-3.024 0-.448.042-.896.126-1.344h-.21c-1.12 0-2.058.546-2.814 1.638-.728 1.064-1.092 2.576-1.092 4.536 0 1.54.294 2.716.882 3.528.616.812 1.33 1.218 2.142 1.218zm15.5893 4.452c-1.26 0-2.296-.574-3.108-1.722-.784-1.176-1.176-2.632-1.176-4.368 0-2.1.14-4.018.42-5.754.28-1.764.742-3.626 1.386-5.586.28-.84.672-1.442 1.176-1.806s1.302-.546 2.394-.546c.616 0 1.036.098 1.26.294.252.196.378.49.378.882 0 .224-.154.98-.462 2.268-.28 1.036-.504 1.974-.672 2.814-.56 2.94-.84 4.9-.84 5.88 0 .588.07 1.008.21 1.26.14.224.364.336.672.336.42 0 .938-.42 1.554-1.26.644-.84 1.316-2.114 2.016-3.822.728-1.708 1.428-3.808 2.1-6.3.224-.84.56-1.442 1.008-1.806.476-.364 1.176-.546 2.1-.546.644 0 1.092.084 1.344.252.252.14.378.42.378.84 0 .7-.35 2.618-1.05 5.754-.784 3.584-1.176 5.796-1.176 6.636 0 .532.112.952.336 1.26.224.28.518.42.882.42.56 0 1.218-.336 1.974-1.008.784-.7 1.82-1.82 3.108-3.36.336-.392.714-.588 1.134-.588.364 0 .644.168.84.504.224.336.336.798.336 1.386 0 1.12-.266 1.988-.798 2.604-1.204 1.484-2.506 2.702-3.906 3.654-1.372.952-2.94 1.428-4.704 1.428-1.344 0-2.338-.518-2.982-1.554-.616-1.036-.924-2.492-.924-4.368-.476 1.904-1.19 3.374-2.142 4.41-.952 1.008-1.974 1.512-3.066 1.512zm36.6206-9.492c.364 0 .644.182.84.546.224.336.336.77.336 1.302 0 .644-.098 1.148-.294 1.512s-.504.686-.924.966c-2.408 1.624-4.1723 2.828-5.2923 3.612l-2.688 1.806c-1.064 5.796-2.464 10.346-4.2 13.65-1.708 3.332-3.892 4.998-6.552 4.998-1.428 0-2.59-.448-3.486-1.344-.896-.868-1.344-2.016-1.344-3.444 0-1.988.784-4.13 2.352-6.426 1.568-2.268 4.508-5.068 8.82-8.4l.252-1.638c-.476.756-1.106 1.344-1.89 1.764-.756.392-1.512.588-2.268.588-1.736 0-3.122-.63-4.158-1.89s-1.554-2.912-1.554-4.956c0-2.24.518-4.354 1.554-6.342 1.036-2.016 2.408-3.626 4.116-4.83 1.736-1.232 3.57-1.848 5.502-1.848.616 0 1.022.126 1.218.378.224.224.406.644.546 1.26.532-.112 1.148-.168 1.848-.168s1.19.112 1.47.336c.308.196.462.602.462 1.218 0 .336-.014.602-.042.798-.112.868-.462 3.066-1.05 6.594-.112.672-.238 1.414-.378 2.226-.112.784-.238 1.624-.378 2.52 2.156-1.68 4.228-3.164 6.2163-4.452.364-.224.686-.336.966-.336zm-14.8263 5.25c.644 0 1.26-.392 1.848-1.176s1.008-1.904 1.26-3.36l1.344-7.182c-1.148.028-2.212.476-3.192 1.344-.98.84-1.764 1.96-2.352 3.36s-.882 2.884-.882 4.452c0 .868.168 1.512.504 1.932.364.42.854.63 1.47.63zm-3.486 19.068c.7 0 1.484-.84 2.352-2.52.896-1.68 1.75-4.354 2.562-8.022-2.156 1.848-3.71 3.514-4.662 4.998s-1.428 2.786-1.428 3.906c0 .476.084.868.252 1.176.196.308.504.462.924.462zm31.7733-34.608c.896 0 1.568.238 2.016.714.476.448.714 1.12.714 2.016 0 .728-.154 2.1-.462 4.116-.28 1.708-.504 3.332-.672 4.872-.168 1.512-.252 3.206-.252 5.082 0 1.064-.224 1.834-.672 2.31-.42.448-1.12.672-2.1.672-.924 0-1.596-.238-2.016-.714s-.63-1.19-.63-2.142c0-1.12.196-2.968.588-5.544.336-2.24.504-3.668.504-4.284 0-.448-.154-.672-.462-.672-.364 0-.882.476-1.554 1.428-.672.924-1.344 2.156-2.016 3.696s-1.218 3.164-1.638 4.872c-.308 1.316-.672 2.212-1.092 2.688-.392.448-1.022.672-1.89.672s-1.512-.308-1.932-.924c-.392-.644-.658-1.624-.798-2.94s-.21-3.248-.21-5.796c0-4.312.434-8.806 1.302-13.482.896-4.676 2.198-8.596 3.906-11.76 1.736-3.192 3.808-4.788 6.216-4.788 1.288 0 2.324.56 3.108 1.68.812 1.092 1.218 2.52 1.218 4.284 0 2.828-.826 5.768-2.478 8.82-1.652 3.024-4.34 6.566-8.064 10.626-.084 1.456-.126 2.954-.126 4.494.924-2.38 1.946-4.312 3.066-5.796 1.148-1.512 2.268-2.59 3.36-3.234 1.12-.644 2.142-.966 3.066-.966zm-4.032-15.75c-.504 0-1.064.728-1.68 2.184-.616 1.428-1.218 3.374-1.806 5.838-.56 2.436-1.022 5.096-1.386 7.98 1.736-2.044 3.164-4.27 4.284-6.678 1.148-2.408 1.722-4.592 1.722-6.552 0-.896-.098-1.582-.294-2.058s-.476-.714-.84-.714z" fill="#fff"/></svg>