<svg width="161" height="21" viewBox="0 0 161 21" fill="none" xmlns="http://www.w3.org/2000/svg">
<path d="M10.3747 18.264C8.80538 18.264 7.38271 17.9267 6.10671 17.252C4.84538 16.5627 3.84804 15.6167 3.11471 14.414C2.39604 13.1967 2.03671 11.8253 2.03671 10.3C2.03671 8.77467 2.39604 7.41067 3.11471 6.208C3.84804 4.99067 4.84538 4.04467 6.10671 3.37C7.38271 2.68067 8.81271 2.336 10.3967 2.336C11.7314 2.336 12.934 2.57067 14.0047 3.04C15.09 3.50933 15.9994 4.184 16.7327 5.064L14.4447 7.176C13.4034 5.97333 12.1127 5.372 10.5727 5.372C9.61938 5.372 8.76871 5.58467 8.02071 6.01C7.27271 6.42067 6.68604 7 6.26071 7.748C5.85004 8.496 5.64471 9.34667 5.64471 10.3C5.64471 11.2533 5.85004 12.104 6.26071 12.852C6.68604 13.6 7.27271 14.1867 8.02071 14.612C8.76871 15.0227 9.61938 15.228 10.5727 15.228C12.1127 15.228 13.4034 14.6193 14.4447 13.402L16.7327 15.514C15.9994 16.4087 15.09 17.0907 14.0047 17.56C12.9194 18.0293 11.7094 18.264 10.3747 18.264ZM28.9807 14.7H21.8307L20.4667 18H16.8147L23.6787 2.6H27.1987L34.0847 18H30.3447L28.9807 14.7ZM27.8587 11.994L25.4167 6.098L22.9747 11.994H27.8587ZM35.6824 2.6H39.2464V15.096H46.9684V18H35.6824V2.6ZM56.072 18.264C54.5026 18.264 53.08 17.9267 51.804 17.252C50.5426 16.5627 49.5453 15.6167 48.812 14.414C48.0933 13.1967 47.734 11.8253 47.734 10.3C47.734 8.77467 48.0933 7.41067 48.812 6.208C49.5453 4.99067 50.5426 4.04467 51.804 3.37C53.08 2.68067 54.51 2.336 56.094 2.336C57.4286 2.336 58.6313 2.57067 59.702 3.04C60.7873 3.50933 61.6966 4.184 62.43 5.064L60.142 7.176C59.1006 5.97333 57.81 5.372 56.27 5.372C55.3166 5.372 54.466 5.58467 53.718 6.01C52.97 6.42067 52.3833 7 51.958 7.748C51.5473 8.496 51.342 9.34667 51.342 10.3C51.342 11.2533 51.5473 12.104 51.958 12.852C52.3833 13.6 52.97 14.1867 53.718 14.612C54.466 15.0227 55.3166 15.228 56.27 15.228C57.81 15.228 59.1006 14.6193 60.142 13.402L62.43 15.514C61.6966 16.4087 60.7873 17.0907 59.702 17.56C58.6166 18.0293 57.4066 18.264 56.072 18.264ZM71.5498 18.264C69.3498 18.264 67.6338 17.6553 66.4018 16.438C65.1845 15.2207 64.5758 13.4827 64.5758 11.224V2.6H68.1398V11.092C68.1398 13.8493 69.2838 15.228 71.5718 15.228C72.6865 15.228 73.5372 14.898 74.1238 14.238C74.7105 13.5633 75.0038 12.5147 75.0038 11.092V2.6H78.5238V11.224C78.5238 13.4827 77.9078 15.2207 76.6758 16.438C75.4585 17.6553 73.7498 18.264 71.5498 18.264ZM82.0457 2.6H85.6097V15.096H93.3317V18H82.0457V2.6ZM105.594 14.7H98.444L97.08 18H93.428L100.292 2.6H103.812L110.698 18H106.958L105.594 14.7ZM104.472 11.994L102.03 6.098L99.588 11.994H104.472ZM114.712 5.504H109.784V2.6H123.204V5.504H118.276V18H114.712V5.504ZM132.365 18.264C130.766 18.264 129.322 17.9193 128.031 17.23C126.755 16.5407 125.75 15.5947 125.017 14.392C124.298 13.1747 123.939 11.8107 123.939 10.3C123.939 8.78933 124.298 7.43267 125.017 6.23C125.75 5.01267 126.755 4.05933 128.031 3.37C129.322 2.68067 130.766 2.336 132.365 2.336C133.964 2.336 135.401 2.68067 136.677 3.37C137.953 4.05933 138.958 5.01267 139.691 6.23C140.424 7.43267 140.791 8.78933 140.791 10.3C140.791 11.8107 140.424 13.1747 139.691 14.392C138.958 15.5947 137.953 16.5407 136.677 17.23C135.401 17.9193 133.964 18.264 132.365 18.264ZM132.365 15.228C133.274 15.228 134.096 15.0227 134.829 14.612C135.562 14.1867 136.134 13.6 136.545 12.852C136.97 12.104 137.183 11.2533 137.183 10.3C137.183 9.34667 136.97 8.496 136.545 7.748C136.134 7 135.562 6.42067 134.829 6.01C134.096 5.58467 133.274 5.372 132.365 5.372C131.456 5.372 130.634 5.58467 129.901 6.01C129.168 6.42067 128.588 7 128.163 7.748C127.752 8.496 127.547 9.34667 127.547 10.3C127.547 11.2533 127.752 12.104 128.163 12.852C128.588 13.6 129.168 14.1867 129.901 14.612C130.634 15.0227 131.456 15.228 132.365 15.228ZM153.282 18L150.312 13.71H150.136H147.034V18H143.47V2.6H150.136C151.5 2.6 152.68 2.82733 153.678 3.282C154.69 3.73667 155.467 4.382 156.01 5.218C156.552 6.054 156.824 7.044 156.824 8.188C156.824 9.332 156.545 10.322 155.988 11.158C155.445 11.9793 154.668 12.61 153.656 13.05L157.11 18H153.282ZM153.216 8.188C153.216 7.32267 152.937 6.66267 152.38 6.208C151.822 5.73867 151.008 5.504 149.938 5.504H147.034V10.872H149.938C151.008 10.872 151.822 10.6373 152.38 10.168C152.937 9.69867 153.216 9.03867 153.216 8.188Z" fill="white"/>
<path d="M6.10671 17.252L5.14758 19.007L5.15968 19.0136L5.17187 19.0201L6.10671 17.252ZM3.11471 14.414L1.39244 15.4308L1.39969 15.443L1.40712 15.4552L3.11471 14.414ZM3.11471 6.208L1.40154 5.17597L1.39788 5.18209L3.11471 6.208ZM6.10671 3.37L7.05002 5.13358L7.05732 5.12964L6.10671 3.37ZM14.0047 3.04L13.2017 4.87176L13.2109 4.87571L14.0047 3.04ZM16.7327 5.064L18.0893 6.53361L19.4862 5.24411L18.2692 3.78363L16.7327 5.064ZM14.4447 7.176L12.9327 8.48516L14.2842 10.046L15.8013 8.64561L14.4447 7.176ZM8.02071 6.01L8.98323 7.76316L8.99633 7.75597L9.00932 7.74858L8.02071 6.01ZM6.26071 7.748L4.52213 6.75939L4.51475 6.77238L4.50755 6.78548L6.26071 7.748ZM6.26071 12.852L4.50755 13.8145L4.51475 13.8276L4.52213 13.8406L6.26071 12.852ZM8.02071 14.612L7.03211 16.3506L7.0451 16.358L7.05819 16.3652L8.02071 14.612ZM14.4447 13.402L15.8013 11.9324L14.2751 10.5236L12.9249 12.1019L14.4447 13.402ZM16.7327 15.514L18.2795 16.7819L19.4749 15.3234L18.0893 14.0444L16.7327 15.514ZM14.0047 17.56L13.2109 15.7243L14.0047 17.56ZM10.3747 16.264C9.10214 16.264 8.00482 15.9932 7.04155 15.4839L5.17187 19.0201C6.7606 19.8601 8.50862 20.264 10.3747 20.264V16.264ZM7.06585 15.497C6.10567 14.9722 5.36918 14.2697 4.8223 13.3728L1.40712 15.4552C2.32691 16.9637 3.58508 18.1531 5.14758 19.007L7.06585 15.497ZM4.83698 13.3972C4.31445 12.5121 4.03671 11.4969 4.03671 10.3H0.0367107C0.0367107 12.1537 0.477642 13.8812 1.39244 15.4308L4.83698 13.3972ZM4.03671 10.3C4.03671 9.10281 4.31447 8.09921 4.83154 7.23391L1.39788 5.18209C0.477617 6.72212 0.0367107 8.44652 0.0367107 10.3H4.03671ZM4.82787 7.24002C5.37392 6.33358 6.10435 5.63939 7.05002 5.13357L5.16341 1.60643C3.58641 2.44994 2.32216 3.64775 1.40155 5.17597L4.82787 7.24002ZM7.05732 5.12964C8.01494 4.61231 9.1133 4.336 10.3967 4.336V0.336C8.51213 0.336 6.75048 0.749024 5.1561 1.61036L7.05732 5.12964ZM10.3967 4.336C11.494 4.336 12.4177 4.52804 13.2018 4.87174L14.8077 1.20826C13.4504 0.613296 11.9688 0.336 10.3967 0.336V4.336ZM13.2109 4.87571C14.0182 5.22482 14.6701 5.71301 15.1963 6.34437L18.2692 3.78363C17.3286 2.65499 16.1619 1.79385 14.7985 1.20429L13.2109 4.87571ZM15.3762 3.59439L13.0882 5.70639L15.8013 8.64561L18.0893 6.53361L15.3762 3.59439ZM15.9567 5.86684C14.5498 4.24201 12.7146 3.372 10.5727 3.372V7.372C11.5108 7.372 12.2569 7.70466 12.9327 8.48516L15.9567 5.86684ZM10.5727 3.372C9.31105 3.372 8.11305 3.65677 7.03211 4.27142L9.00932 7.74858C9.42437 7.51257 9.9277 7.372 10.5727 7.372V3.372ZM7.05819 4.25684C5.98288 4.84721 5.1288 5.6925 4.52213 6.75939L7.99929 8.7366C8.24329 8.3075 8.56254 7.99412 8.98323 7.76316L7.05819 4.25684ZM4.50755 6.78548C3.91666 7.86176 3.64471 9.05033 3.64471 10.3H7.64471C7.64471 9.643 7.78343 9.13024 8.01387 8.71052L4.50755 6.78548ZM3.64471 10.3C3.64471 11.5497 3.91666 12.7382 4.50755 13.8145L8.01387 11.8895C7.78343 11.4698 7.64471 10.957 7.64471 10.3H3.64471ZM4.52213 13.8406C5.12541 14.9015 5.97118 15.7473 7.03211 16.3506L9.00932 12.8734C8.57425 12.626 8.24668 12.2985 7.99929 11.8634L4.52213 13.8406ZM7.05819 16.3652C8.13447 16.9561 9.32304 17.228 10.5727 17.228V13.228C9.91571 13.228 9.40295 13.0893 8.98323 12.8588L7.05819 16.3652ZM10.5727 17.228C12.7237 17.228 14.5607 16.3431 15.9645 14.7021L12.9249 12.1019C12.246 12.8955 11.5018 13.228 10.5727 13.228V17.228ZM13.0882 14.8716L15.3762 16.9836L18.0893 14.0444L15.8013 11.9324L13.0882 14.8716ZM15.1859 14.2461C14.6593 14.8886 14.0103 15.3786 13.2109 15.7243L14.7985 19.3957C16.1698 18.8027 17.3394 17.9287 18.2795 16.7819L15.1859 14.2461ZM13.2109 15.7243C12.4065 16.0721 11.4714 16.264 10.3747 16.264V20.264C11.9473 20.264 13.4323 19.9865 14.7985 19.3957L13.2109 15.7243ZM28.9807 14.7L30.829 13.936L30.3181 12.7H28.9807V14.7ZM21.8307 14.7V12.7H20.4933L19.9824 13.936L21.8307 14.7ZM20.4667 18V20H21.8041L22.315 18.764L20.4667 18ZM16.8147 18L14.9879 17.1858L13.7336 20H16.8147V18ZM23.6787 2.6V0.599999H22.3805L21.8519 1.78579L23.6787 2.6ZM27.1987 2.6L29.0245 1.78361L28.4952 0.599999H27.1987V2.6ZM34.0847 18V20H37.1698L35.9105 17.1836L34.0847 18ZM30.3447 18L28.4964 18.764L29.0073 20H30.3447V18ZM27.8587 11.994V13.994H30.8518L29.7065 11.2287L27.8587 11.994ZM25.4167 6.098L27.2645 5.33269L25.4167 0.871377L23.5689 5.33269L25.4167 6.098ZM22.9747 11.994L21.1269 11.2287L19.9816 13.994H22.9747V11.994ZM28.9807 12.7H21.8307V16.7H28.9807V12.7ZM19.9824 13.936L18.6184 17.236L22.315 18.764L23.679 15.464L19.9824 13.936ZM20.4667 16H16.8147V20H20.4667V16ZM18.6415 18.8142L25.5055 3.41421L21.8519 1.78579L14.9879 17.1858L18.6415 18.8142ZM23.6787 4.6H27.1987V0.599999H23.6787V4.6ZM25.3729 3.41639L32.2589 18.8164L35.9105 17.1836L29.0245 1.78361L25.3729 3.41639ZM34.0847 16H30.3447V20H34.0847V16ZM32.193 17.236L30.829 13.936L27.1324 15.464L28.4964 18.764L32.193 17.236ZM29.7065 11.2287L27.2645 5.33269L23.5689 6.86331L26.0109 12.7593L29.7065 11.2287ZM23.5689 5.33269L21.1269 11.2287L24.8225 12.7593L27.2645 6.86331L23.5689 5.33269ZM22.9747 13.994H27.8587V9.994H22.9747V13.994ZM35.6824 2.6V0.599999H33.6824V2.6H35.6824ZM39.2464 2.6H41.2464V0.599999H39.2464V2.6ZM39.2464 15.096H37.2464V17.096H39.2464V15.096ZM46.9684 15.096H48.9684V13.096H46.9684V15.096ZM46.9684 18V20H48.9684V18H46.9684ZM35.6824 18H33.6824V20H35.6824V18ZM35.6824 4.6H39.2464V0.599999H35.6824V4.6ZM37.2464 2.6V15.096H41.2464V2.6H37.2464ZM39.2464 17.096H46.9684V13.096H39.2464V17.096ZM44.9684 15.096V18H48.9684V15.096H44.9684ZM46.9684 16H35.6824V20H46.9684V16ZM37.6824 18V2.6H33.6824V18H37.6824ZM51.804 17.252L50.8448 19.007L50.8569 19.0136L50.8691 19.0201L51.804 17.252ZM48.812 14.414L47.0897 15.4308L47.097 15.443L47.1044 15.4552L48.812 14.414ZM48.812 6.208L47.0988 5.17597L47.0951 5.18209L48.812 6.208ZM51.804 3.37L52.7473 5.13358L52.7546 5.12964L51.804 3.37ZM59.702 3.04L58.899 4.87176L58.9082 4.87571L59.702 3.04ZM62.43 5.064L63.7865 6.53361L65.1835 5.24411L63.9664 3.78363L62.43 5.064ZM60.142 7.176L58.63 8.48516L59.9814 10.046L61.4985 8.64561L60.142 7.176ZM53.718 6.01L54.6805 7.76316L54.6936 7.75597L54.7066 7.74858L53.718 6.01ZM51.958 7.748L50.2194 6.75939L50.212 6.77238L50.2048 6.78548L51.958 7.748ZM51.958 12.852L50.2048 13.8145L50.212 13.8276L50.2194 13.8406L51.958 12.852ZM53.718 14.612L52.7294 16.3506L52.7424 16.358L52.7555 16.3652L53.718 14.612ZM60.142 13.402L61.4985 11.9324L59.9723 10.5236L58.6222 12.1019L60.142 13.402ZM62.43 15.514L63.9768 16.7819L65.1722 15.3234L63.7865 14.0444L62.43 15.514ZM59.702 17.56L58.9082 15.7243L59.702 17.56ZM56.072 16.264C54.7994 16.264 53.7021 15.9932 52.7388 15.4839L50.8691 19.0201C52.4579 19.8601 54.2059 20.264 56.072 20.264V16.264ZM52.7631 15.497C51.8029 14.9722 51.0664 14.2697 50.5196 13.3728L47.1044 15.4552C48.0242 16.9637 49.2823 18.1531 50.8448 19.007L52.7631 15.497ZM50.5342 13.3972C50.0117 12.5121 49.734 11.4969 49.734 10.3H45.734C45.734 12.1537 46.1749 13.8812 47.0897 15.4308L50.5342 13.3972ZM49.734 10.3C49.734 9.10281 50.0117 8.09921 50.5288 7.23391L47.0951 5.18209C46.1749 6.72212 45.734 8.44652 45.734 10.3H49.734ZM50.5251 7.24002C51.0712 6.33358 51.8016 5.63939 52.7473 5.13357L50.8607 1.60643C49.2837 2.44994 48.0194 3.64775 47.0988 5.17597L50.5251 7.24002ZM52.7546 5.12964C53.7122 4.61231 54.8106 4.336 56.094 4.336V0.336C54.2094 0.336 52.4478 0.749024 50.8534 1.61036L52.7546 5.12964ZM56.094 4.336C57.1913 4.336 58.115 4.52804 58.899 4.87174L60.5049 1.20826C59.1477 0.613296 57.666 0.336 56.094 0.336V4.336ZM58.9082 4.87571C59.7155 5.22482 60.3674 5.71301 60.8935 6.34437L63.9664 3.78363C63.0259 2.65499 61.8592 1.79385 60.4958 1.20429L58.9082 4.87571ZM61.0734 3.59439L58.7854 5.70639L61.4985 8.64561L63.7865 6.53361L61.0734 3.59439ZM61.654 5.86684C60.2471 4.24201 58.4119 3.372 56.27 3.372V7.372C57.208 7.372 57.9542 7.70466 58.63 8.48516L61.654 5.86684ZM56.27 3.372C55.0083 3.372 53.8103 3.65677 52.7294 4.27142L54.7066 7.74858C55.1216 7.51257 55.625 7.372 56.27 7.372V3.372ZM52.7555 4.25684C51.6801 4.84721 50.8261 5.6925 50.2194 6.75939L53.6966 8.7366C53.9406 8.3075 54.2598 7.99412 54.6805 7.76316L52.7555 4.25684ZM50.2048 6.78548C49.6139 7.86176 49.342 9.05033 49.342 10.3H53.342C53.342 9.643 53.4807 9.13024 53.7111 8.71052L50.2048 6.78548ZM49.342 10.3C49.342 11.5497 49.6139 12.7382 50.2048 13.8145L53.7111 11.8895C53.4807 11.4698 53.342 10.957 53.342 10.3H49.342ZM50.2194 13.8406C50.8227 14.9015 51.6684 15.7473 52.7294 16.3506L54.7066 12.8734C54.2715 12.626 53.9439 12.2985 53.6966 11.8634L50.2194 13.8406ZM52.7555 16.3652C53.8317 16.9561 55.0203 17.228 56.27 17.228V13.228C55.613 13.228 55.1002 13.0893 54.6805 12.8588L52.7555 16.3652ZM56.27 17.228C58.4209 17.228 60.258 16.3431 61.6618 14.7021L58.6222 12.1019C57.9433 12.8955 57.199 13.228 56.27 13.228V17.228ZM58.7854 14.8716L61.0734 16.9836L63.7865 14.0444L61.4985 11.9324L58.7854 14.8716ZM60.8832 14.2461C60.3566 14.8886 59.7076 15.3786 58.9082 15.7243L60.4958 19.3957C61.8671 18.8027 63.0367 17.9287 63.9768 16.7819L60.8832 14.2461ZM58.9082 15.7243C58.1038 16.0721 57.1687 16.264 56.072 16.264V20.264C57.6446 20.264 59.1295 19.9865 60.4958 19.3957L58.9082 15.7243ZM66.4018 16.438L64.9876 17.8522L64.9961 17.8607L66.4018 16.438ZM64.5758 2.6V0.599999H62.5758V2.6H64.5758ZM68.1398 2.6H70.1398V0.599999H68.1398V2.6ZM74.1238 14.238L75.6187 15.5667L75.6259 15.5586L75.633 15.5504L74.1238 14.238ZM75.0038 2.6V0.599999H73.0038V2.6H75.0038ZM78.5238 2.6H80.5238V0.599999H78.5238V2.6ZM76.6758 16.438L75.2701 15.0153L75.2616 15.0238L76.6758 16.438ZM71.5498 16.264C69.727 16.264 68.571 15.7697 67.8076 15.0153L64.9961 17.8607C66.6967 19.5409 68.9727 20.264 71.5498 20.264V16.264ZM67.816 15.0238C67.08 14.2877 66.5758 13.1242 66.5758 11.224H62.5758C62.5758 13.8412 63.289 16.1536 64.9876 17.8522L67.816 15.0238ZM66.5758 11.224V2.6H62.5758V11.224H66.5758ZM64.5758 4.6H68.1398V0.599999H64.5758V4.6ZM66.1398 2.6V11.092H70.1398V2.6H66.1398ZM66.1398 11.092C66.1398 12.6976 66.4652 14.2739 67.4587 15.4711C68.5115 16.7399 70.0112 17.228 71.5718 17.228V13.228C70.8445 13.228 70.6282 13.0268 70.537 12.9169C70.3865 12.7355 70.1398 12.2438 70.1398 11.092H66.1398ZM71.5718 17.228C73.097 17.228 74.5573 16.7607 75.6187 15.5667L72.629 12.9093C72.517 13.0353 72.276 13.228 71.5718 13.228V17.228ZM75.633 15.5504C76.6769 14.3499 77.0038 12.7274 77.0038 11.092H73.0038C73.0038 12.302 72.7441 12.7768 72.6146 12.9256L75.633 15.5504ZM77.0038 11.092V2.6H73.0038V11.092H77.0038ZM75.0038 4.6H78.5238V0.599999H75.0038V4.6ZM76.5238 2.6V11.224H80.5238V2.6H76.5238ZM76.5238 11.224C76.5238 13.1177 76.0162 14.2782 75.2701 15.0153L78.0816 17.8607C79.7995 16.1631 80.5238 13.8477 80.5238 11.224H76.5238ZM75.2616 15.0238C74.5161 15.7693 73.374 16.264 71.5498 16.264V20.264C74.1257 20.264 76.4009 19.5413 78.09 17.8522L75.2616 15.0238ZM82.0457 2.6V0.599999H80.0457V2.6H82.0457ZM85.6097 2.6H87.6097V0.599999H85.6097V2.6ZM85.6097 15.096H83.6097V17.096H85.6097V15.096ZM93.3317 15.096H95.3317V13.096H93.3317V15.096ZM93.3317 18V20H95.3317V18H93.3317ZM82.0457 18H80.0457V20H82.0457V18ZM82.0457 4.6H85.6097V0.599999H82.0457V4.6ZM83.6097 2.6V15.096H87.6097V2.6H83.6097ZM85.6097 17.096H93.3317V13.096H85.6097V17.096ZM91.3317 15.096V18H95.3317V15.096H91.3317ZM93.3317 16H82.0457V20H93.3317V16ZM84.0457 18V2.6H80.0457V18H84.0457ZM105.594 14.7L107.442 13.936L106.931 12.7H105.594V14.7ZM98.444 14.7V12.7H97.1065L96.5956 13.936L98.444 14.7ZM97.08 18V20H98.4174L98.9283 18.764L97.08 18ZM93.428 18L91.6012 17.1858L90.3469 20H93.428V18ZM100.292 2.6V0.599999H98.9937L98.4652 1.78579L100.292 2.6ZM103.812 2.6L105.638 1.78361L105.109 0.599999H103.812V2.6ZM110.698 18V20H113.783L112.524 17.1836L110.698 18ZM106.958 18L105.11 18.764L105.621 20H106.958V18ZM104.472 11.994V13.994H107.465L106.32 11.2287L104.472 11.994ZM102.03 6.098L103.878 5.33269L102.03 0.871377L100.182 5.33269L102.03 6.098ZM99.588 11.994L97.7402 11.2287L96.5949 13.994H99.588V11.994ZM105.594 12.7H98.444V16.7H105.594V12.7ZM96.5956 13.936L95.2316 17.236L98.9283 18.764L100.292 15.464L96.5956 13.936ZM97.08 16H93.428V20H97.08V16ZM95.2547 18.8142L102.119 3.41421L98.4652 1.78579L91.6012 17.1858L95.2547 18.8142ZM100.292 4.6H103.812V0.599999H100.292V4.6ZM101.986 3.41639L108.872 18.8164L112.524 17.1836L105.638 1.78361L101.986 3.41639ZM110.698 16H106.958V20H110.698V16ZM108.806 17.236L107.442 13.936L103.746 15.464L105.11 18.764L108.806 17.236ZM106.32 11.2287L103.878 5.33269L100.182 6.86331L102.624 12.7593L106.32 11.2287ZM100.182 5.33269L97.7402 11.2287L101.436 12.7593L103.878 6.86331L100.182 5.33269ZM99.588 13.994H104.472V9.994H99.588V13.994ZM114.712 5.504H116.712V3.504H114.712V5.504ZM109.784 5.504H107.784V7.504H109.784V5.504ZM109.784 2.6V0.599999H107.784V2.6H109.784ZM123.204 2.6H125.204V0.599999H123.204V2.6ZM123.204 5.504V7.504H125.204V5.504H123.204ZM118.276 5.504V3.504H116.276V5.504H118.276ZM118.276 18V20H120.276V18H118.276ZM114.712 18H112.712V20H114.712V18ZM114.712 3.504H109.784V7.504H114.712V3.504ZM111.784 5.504V2.6H107.784V5.504H111.784ZM109.784 4.6H123.204V0.599999H109.784V4.6ZM121.204 2.6V5.504H125.204V2.6H121.204ZM123.204 3.504H118.276V7.504H123.204V3.504ZM116.276 5.504V18H120.276V5.504H116.276ZM118.276 16H114.712V20H118.276V16ZM116.712 18V5.504H112.712V18H116.712ZM128.031 17.23L127.08 18.9897L127.089 18.9942L128.031 17.23ZM125.017 14.392L123.295 15.4088L123.302 15.421L123.309 15.4332L125.017 14.392ZM125.017 6.23L123.304 5.19797L123.3 5.20409L125.017 6.23ZM128.031 3.37L127.089 1.60583L127.08 1.61036L128.031 3.37ZM139.691 6.23L137.978 7.26204L137.983 7.27121L139.691 6.23ZM139.691 14.392L141.399 15.4332L141.404 15.424L139.691 14.392ZM136.677 17.23L137.628 18.9896L136.677 17.23ZM134.829 14.612L135.806 16.357L135.819 16.3496L135.832 16.3421L134.829 14.612ZM136.545 12.852L134.806 11.8634L134.799 11.8764L134.792 11.8895L136.545 12.852ZM136.545 7.748L134.792 8.71052L134.799 8.72361L134.806 8.7366L136.545 7.748ZM134.829 6.01L133.826 7.74006L133.839 7.74764L133.852 7.75501L134.829 6.01ZM129.901 6.01L130.878 7.75501L130.891 7.74764L130.904 7.74006L129.901 6.01ZM128.163 7.748L126.424 6.75939L126.417 6.77238L126.41 6.78548L128.163 7.748ZM128.163 12.852L126.41 13.8145L126.417 13.8276L126.424 13.8406L128.163 12.852ZM129.901 14.612L128.898 16.3421L128.911 16.3496L128.924 16.357L129.901 14.612ZM132.365 16.264C131.064 16.264 129.948 15.9863 128.973 15.4658L127.089 18.9942C128.696 19.8524 130.469 20.264 132.365 20.264V16.264ZM128.982 15.4704C128.007 14.9441 127.268 14.242 126.725 13.3508L123.309 15.4332C124.233 16.9474 125.503 18.1373 127.08 18.9896L128.982 15.4704ZM126.739 13.3752C126.215 12.4871 125.939 11.4785 125.939 10.3H121.939C121.939 12.1429 122.382 13.8622 123.295 15.4088L126.739 13.3752ZM125.939 10.3C125.939 9.12131 126.215 8.12424 126.734 7.25591L123.3 5.20409C122.382 6.74109 121.939 8.45735 121.939 10.3H125.939ZM126.73 7.26202C127.275 6.35758 128.014 5.65264 128.982 5.12964L127.08 1.61036C125.497 2.46602 124.226 3.66775 123.304 5.19797L126.73 7.26202ZM128.973 5.13415C129.948 4.61368 131.064 4.336 132.365 4.336V0.336C130.469 0.336 128.696 0.747649 127.089 1.60585L128.973 5.13415ZM132.365 4.336C133.666 4.336 134.772 4.61376 135.726 5.12964L137.628 1.61036C136.031 0.747575 134.261 0.336 132.365 0.336V4.336ZM135.726 5.12964C136.695 5.65264 137.433 6.35758 137.978 7.26202L141.404 5.19797C140.482 3.66775 139.212 2.46602 137.628 1.61036L135.726 5.12964ZM137.983 7.27121C138.512 8.13744 138.791 9.129 138.791 10.3H142.791C142.791 8.44966 142.337 6.72789 141.399 5.18878L137.983 7.27121ZM138.791 10.3C138.791 11.4708 138.512 12.474 137.978 13.36L141.404 15.424C142.337 13.8754 142.791 12.1505 142.791 10.3H138.791ZM137.983 13.3508C137.44 14.242 136.701 14.9441 135.726 15.4704L137.628 18.9896C139.205 18.1373 140.475 16.9474 141.399 15.4332L137.983 13.3508ZM135.726 15.4704C134.772 15.9862 133.666 16.264 132.365 16.264V20.264C134.261 20.264 136.031 19.8524 137.628 18.9896L135.726 15.4704ZM132.365 17.228C133.588 17.228 134.75 16.9484 135.806 16.357L133.852 12.867C133.441 13.0969 132.961 13.228 132.365 13.228V17.228ZM135.832 16.3421C136.883 15.7327 137.713 14.8797 138.298 13.8145L134.792 11.8895C134.555 12.3203 134.242 12.6407 133.826 12.8819L135.832 16.3421ZM138.284 13.8406C138.898 12.7597 139.183 11.5617 139.183 10.3H135.183C135.183 10.945 135.042 11.4483 134.806 11.8634L138.284 13.8406ZM139.183 10.3C139.183 9.03834 138.898 7.84034 138.284 6.7594L134.806 8.7366C135.042 9.15166 135.183 9.65499 135.183 10.3H139.183ZM138.298 6.78548C137.71 5.71443 136.872 4.86161 135.806 4.26499L133.852 7.75501C134.253 7.97973 134.559 8.28557 134.792 8.71052L138.298 6.78548ZM135.832 4.27994C134.772 3.66496 133.6 3.372 132.365 3.372V7.372C132.948 7.372 133.419 7.50438 133.826 7.74006L135.832 4.27994ZM132.365 3.372C131.13 3.372 129.958 3.66496 128.898 4.27994L130.904 7.74006C131.311 7.50438 131.782 7.372 132.365 7.372V3.372ZM128.924 4.26499C127.865 4.85811 127.025 5.70252 126.424 6.75939L129.902 8.7366C130.151 8.29748 130.471 7.98322 130.878 7.75501L128.924 4.26499ZM126.41 6.78548C125.819 7.86176 125.547 9.05033 125.547 10.3H129.547C129.547 9.643 129.686 9.13024 129.916 8.71052L126.41 6.78548ZM125.547 10.3C125.547 11.5497 125.819 12.7382 126.41 13.8145L129.916 11.8895C129.686 11.4698 129.547 10.957 129.547 10.3H125.547ZM126.424 13.8406C127.022 14.8916 127.853 15.7362 128.898 16.3421L130.904 12.8819C130.482 12.6371 130.155 12.3084 129.902 11.8634L126.424 13.8406ZM128.924 16.357C129.98 16.9484 131.142 17.228 132.365 17.228V13.228C131.769 13.228 131.289 13.0969 130.878 12.867L128.924 16.357ZM153.282 18L151.637 19.1384L152.234 20H153.282V18ZM150.312 13.71L151.956 12.5716L151.359 11.71H150.312V13.71ZM147.034 13.71V11.71H145.034V13.71H147.034ZM147.034 18V20H149.034V18H147.034ZM143.47 18H141.47V20H143.47V18ZM143.47 2.6V0.599999H141.47V2.6H143.47ZM153.678 3.282L152.848 5.10184L152.858 5.10634L153.678 3.282ZM155.988 11.158L154.323 10.0486L154.319 10.0555L155.988 11.158ZM153.656 13.05L152.858 11.2159L150.617 12.1903L152.015 14.1945L153.656 13.05ZM157.11 18V20H160.944L158.75 16.8555L157.11 18ZM152.38 6.208L151.091 7.73782L151.103 7.74787L151.115 7.75773L152.38 6.208ZM147.034 5.504V3.504H145.034V5.504H147.034ZM147.034 10.872H145.034V12.872H147.034V10.872ZM152.38 10.168L153.668 11.6978V11.6978L152.38 10.168ZM154.926 16.8616L151.956 12.5716L148.667 14.8484L151.637 19.1384L154.926 16.8616ZM150.312 11.71H150.136V15.71H150.312V11.71ZM150.136 11.71H147.034V15.71H150.136V11.71ZM145.034 13.71V18H149.034V13.71H145.034ZM147.034 16H143.47V20H147.034V16ZM145.47 18V2.6H141.47V18H145.47ZM143.47 4.6H150.136V0.599999H143.47V4.6ZM150.136 4.6C151.281 4.6 152.167 4.7912 152.848 5.10181L154.507 1.46218C153.194 0.863469 151.718 0.599999 150.136 0.599999V4.6ZM152.858 5.10634C153.56 5.42187 154.022 5.82922 154.332 6.30694L157.687 4.12906C156.912 2.93478 155.819 2.05146 154.497 1.45766L152.858 5.10634ZM154.332 6.30694C154.634 6.77285 154.824 7.3719 154.824 8.188H158.824C158.824 6.71609 158.47 5.33514 157.687 4.12906L154.332 6.30694ZM154.824 8.188C154.824 8.99358 154.632 9.58514 154.323 10.0486L157.652 12.2674C158.457 11.0589 158.824 9.67042 158.824 8.188H154.824ZM154.319 10.0555C154.015 10.5156 153.559 10.911 152.858 11.2159L154.453 14.8841C155.776 14.309 156.875 13.4431 157.656 12.2605L154.319 10.0555ZM152.015 14.1945L155.469 19.1445L158.75 16.8555L155.296 11.9055L152.015 14.1945ZM157.11 16H153.282V20H157.11V16ZM155.216 8.188C155.216 6.8568 154.762 5.57059 153.644 4.65827L151.115 7.75773C151.142 7.77967 151.152 7.79377 151.164 7.82194C151.18 7.86024 151.216 7.96828 151.216 8.188H155.216ZM153.668 4.67818C152.614 3.79065 151.265 3.504 149.938 3.504V7.504C150.752 7.504 151.031 7.68669 151.091 7.73782L153.668 4.67818ZM149.938 3.504H147.034V7.504H149.938V3.504ZM145.034 5.504V10.872H149.034V5.504H145.034ZM147.034 12.872H149.938V8.872H147.034V12.872ZM149.938 12.872C151.265 12.872 152.614 12.5854 153.668 11.6978L151.091 8.63818C151.031 8.68931 150.752 8.872 149.938 8.872V12.872ZM153.668 11.6978C154.754 10.783 155.216 9.51887 155.216 8.188H151.216C151.216 8.55847 151.12 8.61429 151.091 8.63818L153.668 11.6978Z" fill="black"/>
<path d="M10.3747 18.264C8.80538 18.264 7.38271 17.9267 6.10671 17.252C4.84538 16.5627 3.84804 15.6167 3.11471 14.414C2.39604 13.1967 2.03671 11.8253 2.03671 10.3C2.03671 8.77467 2.39604 7.41067 3.11471 6.208C3.84804 4.99067 4.84538 4.04467 6.10671 3.37C7.38271 2.68067 8.81271 2.336 10.3967 2.336C11.7314 2.336 12.934 2.57067 14.0047 3.04C15.09 3.50933 15.9994 4.184 16.7327 5.064L14.4447 7.176C13.4034 5.97333 12.1127 5.372 10.5727 5.372C9.61938 5.372 8.76871 5.58467 8.02071 6.01C7.27271 6.42067 6.68604 7 6.26071 7.748C5.85004 8.496 5.64471 9.34667 5.64471 10.3C5.64471 11.2533 5.85004 12.104 6.26071 12.852C6.68604 13.6 7.27271 14.1867 8.02071 14.612C8.76871 15.0227 9.61938 15.228 10.5727 15.228C12.1127 15.228 13.4034 14.6193 14.4447 13.402L16.7327 15.514C15.9994 16.4087 15.09 17.0907 14.0047 17.56C12.9194 18.0293 11.7094 18.264 10.3747 18.264ZM28.9807 14.7H21.8307L20.4667 18H16.8147L23.6787 2.6H27.1987L34.0847 18H30.3447L28.9807 14.7ZM27.8587 11.994L25.4167 6.098L22.9747 11.994H27.8587ZM35.6824 2.6H39.2464V15.096H46.9684V18H35.6824V2.6ZM56.072 18.264C54.5026 18.264 53.08 17.9267 51.804 17.252C50.5426 16.5627 49.5453 15.6167 48.812 14.414C48.0933 13.1967 47.734 11.8253 47.734 10.3C47.734 8.77467 48.0933 7.41067 48.812 6.208C49.5453 4.99067 50.5426 4.04467 51.804 3.37C53.08 2.68067 54.51 2.336 56.094 2.336C57.4286 2.336 58.6313 2.57067 59.702 3.04C60.7873 3.50933 61.6966 4.184 62.43 5.064L60.142 7.176C59.1006 5.97333 57.81 5.372 56.27 5.372C55.3166 5.372 54.466 5.58467 53.718 6.01C52.97 6.42067 52.3833 7 51.958 7.748C51.5473 8.496 51.342 9.34667 51.342 10.3C51.342 11.2533 51.5473 12.104 51.958 12.852C52.3833 13.6 52.97 14.1867 53.718 14.612C54.466 15.0227 55.3166 15.228 56.27 15.228C57.81 15.228 59.1006 14.6193 60.142 13.402L62.43 15.514C61.6966 16.4087 60.7873 17.0907 59.702 17.56C58.6166 18.0293 57.4066 18.264 56.072 18.264ZM71.5498 18.264C69.3498 18.264 67.6338 17.6553 66.4018 16.438C65.1845 15.2207 64.5758 13.4827 64.5758 11.224V2.6H68.1398V11.092C68.1398 13.8493 69.2838 15.228 71.5718 15.228C72.6865 15.228 73.5372 14.898 74.1238 14.238C74.7105 13.5633 75.0038 12.5147 75.0038 11.092V2.6H78.5238V11.224C78.5238 13.4827 77.9078 15.2207 76.6758 16.438C75.4585 17.6553 73.7498 18.264 71.5498 18.264ZM82.0457 2.6H85.6097V15.096H93.3317V18H82.0457V2.6ZM105.594 14.7H98.444L97.08 18H93.428L100.292 2.6H103.812L110.698 18H106.958L105.594 14.7ZM104.472 11.994L102.03 6.098L99.588 11.994H104.472ZM114.712 5.504H109.784V2.6H123.204V5.504H118.276V18H114.712V5.504ZM132.365 18.264C130.766 18.264 129.322 17.9193 128.031 17.23C126.755 16.5407 125.75 15.5947 125.017 14.392C124.298 13.1747 123.939 11.8107 123.939 10.3C123.939 8.78933 124.298 7.43267 125.017 6.23C125.75 5.01267 126.755 4.05933 128.031 3.37C129.322 2.68067 130.766 2.336 132.365 2.336C133.964 2.336 135.401 2.68067 136.677 3.37C137.953 4.05933 138.958 5.01267 139.691 6.23C140.424 7.43267 140.791 8.78933 140.791 10.3C140.791 11.8107 140.424 13.1747 139.691 14.392C138.958 15.5947 137.953 16.5407 136.677 17.23C135.401 17.9193 133.964 18.264 132.365 18.264ZM132.365 15.228C133.274 15.228 134.096 15.0227 134.829 14.612C135.562 14.1867 136.134 13.6 136.545 12.852C136.97 12.104 137.183 11.2533 137.183 10.3C137.183 9.34667 136.97 8.496 136.545 7.748C136.134 7 135.562 6.42067 134.829 6.01C134.096 5.58467 133.274 5.372 132.365 5.372C131.456 5.372 130.634 5.58467 129.901 6.01C129.168 6.42067 128.588 7 128.163 7.748C127.752 8.496 127.547 9.34667 127.547 10.3C127.547 11.2533 127.752 12.104 128.163 12.852C128.588 13.6 129.168 14.1867 129.901 14.612C130.634 15.0227 131.456 15.228 132.365 15.228ZM153.282 18L150.312 13.71H150.136H147.034V18H143.47V2.6H150.136C151.5 2.6 152.68 2.82733 153.678 3.282C154.69 3.73667 155.467 4.382 156.01 5.218C156.552 6.054 156.824 7.044 156.824 8.188C156.824 9.332 156.545 10.322 155.988 11.158C155.445 11.9793 154.668 12.61 153.656 13.05L157.11 18H153.282ZM153.216 8.188C153.216 7.32267 152.937 6.66267 152.38 6.208C151.822 5.73867 151.008 5.504 149.938 5.504H147.034V10.872H149.938C151.008 10.872 151.822 10.6373 152.38 10.168C152.937 9.69867 153.216 9.03867 153.216 8.188Z" fill="white"/>
</svg>
